<?xml version="1.0" encoding="UTF-8" standalone="no"?>
<svg xmlns:rdf="http://www.w3.org/1999/02/22-rdf-syntax-ns#" xmlns="http://www.w3.org/2000/svg" height="470.757" width="554.256" version="1.1" xmlns:cc="http://creativecommons.org/ns#" xmlns:dc="http://purl.org/dc/elements/1.1/">
 <defs>
  <filter id="a" color-interpolation-filters="sRGB">
   <feGaussianBlur stdDeviation="4.2691281"/>
  </filter>
 </defs>
 <g transform="matrix(.599719 0 0 .630346 7.60112 3.69654)">
  <path d="m892.341 367.542c0 196.088-198.301 355.048-442.915 355.048s-442.913-158.96-442.913-355.048c0-196.086 198.299-355.048 442.913-355.048s442.915 158.961 442.915 355.048z" stroke="#2b3786" stroke-width="5" fill="#fff"/>
  <path fill="#e31e2d" d="m153.969 338.438c-0.50728-0.026-1.07609 0.029-1.75 0.1874-5.3875 1.2688-16.965 5.2264-16.0938 14.6563 0.8725 9.43 9.65625 7.2937 11.7188 6.3437 2.05875-0.9526 9.19875-5.8598 9.4375-16.875 0 0 0.23844-4.1295-3.3125-4.3124zm628.5 0c-0.50711-0.026-1.07641 0.029-1.75 0.1874-5.3875 1.2688-16.965 5.2264-16.0938 14.6563 0.86875 9.43 9.66125 7.2937 11.7188 6.3437 2.0625-0.9526 9.1975-5.8598 9.4375-16.875 0 0 0.23725-4.1295-3.3125-4.3124zm-669.188 0.625c-1.01363 0.013-4.98406 0.3472-3.875 5.0624 1.2675 5.3901 5.22625 16.9651 14.6562 16.0938 9.43-0.8712 7.2925-9.6587 6.34375-11.7188-0.95375-2.0612-5.89125-9.1986-16.9062-9.4374h-0.21875zm628.5 0c-1.01437 0.013-4.98297 0.3472-3.875 5.0624 1.27 5.3901 5.23 16.9651 14.6562 16.0938 9.43125-0.8712 7.29125-9.6587 6.34375-11.7188-0.95375-2.0612-5.86125-9.1986-16.875-9.4374h-0.25zm-634.062 23.5312c-3.71472 0.019-8.90234 1.1742-13.875 5.9375 0 0-4.05125 3.5875 0.65625 6.5 4.7075 2.915 15.6975 8.2851 21.75 1 6.05125-7.2837-1.6825-11.9663-3.8125-12.75-0.79828-0.2949-2.48992-0.6987-4.71875-0.6875zm50.4375 0c-3.06536-0.032-6.04281 0.8936-8.3125 3.625-6.05125 7.2863 1.6825 11.9976 3.8125 12.7812 2.12875 0.7837 10.6688 2.3714 18.625-5.25 0 0 4.01875-3.5862-0.6875-6.5-2.94219-1.8211-8.32856-4.6022-13.4375-4.6562zm578.062 0c-3.71472 0.019-8.90234 1.1742-13.875 5.9375 0 0-4.05 3.5875 0.65625 6.5 4.7075 2.915 15.6975 8.2851 21.75 1 6.0525-7.2837-1.68125-11.9663-3.8125-12.75-0.79828-0.2949-2.48992-0.6987-4.71875-0.6875zm50.4375 0c-3.0654-0.032-6.01203 0.8936-8.28125 3.625-6.0525 7.2863 1.68375 11.9976 3.8125 12.7812 2.12875 0.7837 10.6375 2.3714 18.5938-5.25 0 0 4.02-3.5862-0.6875-6.5-2.94219-1.8211-8.3285-4.6022-13.4375-4.6562zm-653.531 0.625c-4.61125 0-8.34375 3.7313-8.34375 8.3438 0 4.6124 3.7325 8.375 8.34375 8.375 4.61 0 8.34375-3.7627 8.34375-8.375 0-4.6126-3.73375-8.3438-8.34375-8.3438zm628.875 0.375c-4.6125 0-8.34375 3.7313-8.34375 8.3438s3.73125 8.3437 8.34375 8.3437c4.61125 0 8.34375-3.7313 8.34375-8.3437 0-4.6125-3.7325-8.3438-8.34375-8.3438zm-618.188 18.4062c-0.28406 0-0.58035 0.035-0.875 0.063-9.43125 0.8725-7.2925 9.6587-6.34375 11.7187 0.9525 2.0612 5.89125 9.2013 16.9062 9.4375 0 0 5.36125 0.2938 4.09375-5.0938-1.22789-5.2228-4.97549-16.2333-13.7812-16.125zm628.5 0c-0.28413 0-0.54902 0.035-0.84375 0.063-9.42875 0.8725-7.29375 9.6587-6.34375 11.7187 0.9525 2.0612 5.86125 9.2013 16.875 9.4375 0 0 5.39125 0.2938 4.125-5.0938-1.22789-5.2228-5.00447-16.2333-13.8125-16.125zm-648.781 0.1876c-1.89411 0.018-3.60297 0.5504-4.375 0.9062-2.06 0.9525-9.2 5.86-9.4375 16.875 0 0-0.32625 5.3925 5.0625 4.125 5.39-1.2687 16.9662-5.2275 16.0938-14.6562-0.54375-5.8945-4.1869-7.2801-7.34375-7.25zm628.5 0c-1.8941 0.018-3.60203 0.5504-4.375 0.9062-2.06 0.9525-9.1975 5.86-9.4375 16.875 0 0-0.32875 5.3925 5.0625 4.125 5.3875-1.2687 16.965-5.2275 16.0938-14.6562-0.54453-5.8945-4.18691-7.2801-7.34375-7.25z"/>
  <path fill="#e31e2d" d="m682.741 369.616c0 99.0337-105.439 179.316-235.502 179.316-130.068 0-235.506-80.2825-235.506-179.316 0-99.0338 105.439-179.318 235.506-179.318 130.064 0 235.502 80.2837 235.502 179.318"/>
  <path fill="#2b3786" d="m446.312 75.9688c-13.9971 0.1365-31.3258 0.9151-51.4375 2.9688l2.75 95.8437s21.915-4.0888 41.3125-2.7187v-32.875l19.625 0.9062 16.4062 31.5s39.0688 1.4088 49.3125 9.8125l-27.405-40.406s29.6738-10.4699 23.9688-35.3437c-5.70625-24.8737-30.8088-27.635-34.6875-28.0937-2.425-0.2861-16.5152-1.8212-39.8438-1.5938zm-105.406 12.0312c-7.12 0-12.875 5.7564-12.875 12.875 0 7.1225 5.755 12.9063 12.875 12.9063s12.9062-5.7838 12.9062-12.9063c0-7.1186-5.786-12.875-12.906-12.875zm236.312 8.9688-41.5312 84.9062s52.025 14.6014 84.6562 40.8438c0 0 14.1238-19.2649 15.4375-19.875-1.30875-0.6475-15.8838-10.8425-53.0938-29.875 0 0 2.29-10.51 6.625-12.5625 4.33625-2.055 42.9112 21.0125 46.5625 23.75 0 0 10.0312-11.4126 10.0312-12.7813 0-1.3686-21.2312-12.8052-48.8438-25.8124 0 0 5.0225-11.6361 8.21875-13.6876 0 0 37.2012 16.2088 55 30.8126l15.2812-20.3126s-65.2612-39.2437-98.3438-45.4062zm-115.188 0.125c3.00598 0.011 5.37375 0.037 6.34375 0.094 21.22 13.0073-0.46875 22.1562-0.46875 22.1562h-29.6562v-22.1562s14.7633-0.1258 23.7812-0.094zm-160.03 2.8438l-48.5938 21.9062 2.71875 115s11.42-14.5851 34.4688-24.625l-1.375-25.3438 38.3438-17.0937 18.4688 17.3437s34.9162-11.6599 42.2188-12.3437l-86.251-74.8434zm-15.0625 31.7187 27.375 23.5-27.375 13.25v-36.75zm-59.9062 6.0937c-7.12 0-12.875 5.7552-12.875 12.875 0 7.1201 5.755 12.9063 12.875 12.9063 7.12125 0 12.9062-5.7862 12.9062-12.9063 0-7.1198-5.785-12.875-12.9062-12.875zm482.531 31.0938s-67.7438 57.2888-78.4688 61.625c0 0 18.0125 12.3263 28.2812 25.5625 0 0 30.355-30.3376 42.9062-36.5 12.5512-6.1626-21.2288 59.7649-21.6875 60.9063-0.4575 1.1399 18.0462 24.2049 16.9062 41.0937l90.125-49.532-16.4375-30.8124-54.5312 34 30.125-68s-30.6-34.9226-37.2188-38.3438zm-526 11.5625c-5.77089 0.1616-12.9601 2.2761-21.9062 7.375-8.215 7.9875-34.0088 29.905-55.6875 78.2813 0 0 87.6275 46.0862 90.5938 49.9687 0 0 25.5512-48.8263 47-71.875 2.9675-3.6513 17.3575-49.0637-36.5-34.6875 0 0-0.86036-29.6967-23.5-29.0625zm-9.75 36.6875c13.3844-0.5483 8.79281 14.4577 8.59375 15.6562-0.23 1.3703-16.1875 26.0213-18.4688 23.2813-2.28125-2.7387-17.5625-10.9687-17.5625-10.9687l0.21875-0.6876c1.59625-4.3361 17.1175-23.7161 20.3125-26 2.70984-0.7982 4.99419-1.2029 6.90625-1.2812zm34.625 15.6562c12.289-0.2441 10.6805 11.7798 10.2812 14.375-0.455 2.969-20.3088 29.8915-21.9062 28.75-1.598-1.141-17.813-12.531-17.813-12.531 15.7462-25.1025 22.5962-28.5476 23.2812-29.6875 2.3675-0.5992 4.40068-0.8711 6.15625-0.9063zm-12.3125 186.906s-85.3362 45.42-93.0938 46.5625c0 0 14.3725 30.8012 15.9688 32.625l52.7188-28.75s5.245-0.4638 1.59375 5.4688c-3.65125 5.9324-34.6875 51.125-34.6875 51.125s13.6975 20.0899 16.4375 21c2.73875 0.9161 68.2188-18.9376 68.2188-18.9376s2.0575 2.035-1.59375 5.6876c-3.65125 3.6499-39.265 37.4237-40.4062 37.6562-1.14125 0.2263 22.375 19.6174 24.6562 19.8438 2.2825 0.2299 72.7812-69.3776 72.7812-70.0626 0-0.6837-7.16875-3.3825-36.9688-30.5624 0 0-50.1862 17.33-54.75 16.1874-4.56375-1.1422 30.125-45.8437 30.125-45.8437s-5.93875-5.0337-21-42zm500.219 9.8125s-36.5175 63.8912-55.6875 73.25c0 0 73.9388 53.8526 79.1875 61.1562 0 0 50.445-51.1039 62.3125-85.5624 0 0-19.6288-13.7001-20.3125-14.1563-0.68625-0.4538-18.265 38.0924-34.4688 53.1563 0 0-11.3925-5.6865-13.2188-10.25 0 0 26.2275-33.7827 28.2812-42l-13.2188-9.3438s-18.955 36.51-30.5938 43.8125c0 0-10.2488-4.5825-12.5312-9.375 0 0 27.1388-33.0723 31.25-47.9063 0 0-17.575-9.3612-21-12.7812zm-66.0312 81.5625c-0.1095 0.013-0.29422 0.2705-0.59375 0.8125-4.7925 8.6724-33.7812 21.9062-33.7812 21.9062l-19.625 51.8126-14.8438-36.9688c-7.3025 6.1625-36.0312 12.3125-36.0312 12.3125l34.4375 88.7813s38.3525-12.775 37.4375-13.6876c-0.91375-0.9162-8.21625-13.4848-7.53125-14.625 0.68375-1.1423 10.5-26.4687 10.5-26.4687l44.718 20.782c26.7012-12.3252 41.5312-27.625 41.5312-27.625l-73.031-21.688s18.455-55.5439 16.8125-55.3437zm-315.969 28.875s-72.81 57.9812-87.1875 63.6875l34 19.8438 22.1562-17.5626 41.0625 16.1876-1.15625 26.0312 40.1875 9.125-0.25-97.4375s-35.5762-6.41-48.8125-19.875zm81.9062 26.9375-5 93.5625c10.9538 5.4762 45.1562 2.2813 45.1562 2.2813l0.25-32.4063s20.2888 0.2326 22.3438 1.375c2.055 1.1426 22.5938 31.2813 22.5938 31.2813 25.33 0.6835 48.375-8 48.375-8-13.92-8.6714-31.0312-31.0313-31.0312-31.0313 46.0962-36.97-0.6875-52.96-5.25-53.875-41.3038 4.3362-97.4375-3.1875-97.4375-3.1875zm-69.125 3.6562-0.6875 32.625-27.1562-11.625 27.8438-21zm111.344 19.1563 27.625 0.25c22.8225 13.2351-0.46875 23.0313-0.46875 23.0313l-27.375-0.2188 0.21875-23.0625z"/>
  <path d="m854.885 367.826c0 179.251-181.972 324.561-406.452 324.561-224.478 0-406.453-145.31-406.453-324.561 0-179.254 181.975-324.568 406.453-324.568 224.48 0 406.452 145.314 406.452 324.568z" stroke="#e31e2d" stroke-width="12.5" fill="none"/>
  <path filter="url(#a)" fill="#fff" d="m234.389 409.285c-2.47278-4.6205-4.82197-21.2221-4.86725-34.3968-0.0785-22.83 5.65312-48.0917 15.2722-67.3117 10.4575-20.8951 28.824-41.6072 48.4342-54.6199 20.5374-13.6281 40.4596-21.5677 43.1588-17.2003 1.24297 2.0112-1.26113 4.282-11.04 10.0114-43.3106 25.3756-70.8163 61.5451-78.991 103.872-1.52231 7.8823-1.93431 16.4048-1.68316 34.8174 0.1829 13.4091-0.10053 25.081-0.62983 25.9375-1.6207 2.6223-8.05236 1.8832-9.65398-1.1094z"/>
  <path d="m605.059 433.196c-0.56125-0.4762-1.10125-0.8862-1.68-1.195-0.57375-0.31-1.20125-0.515-1.8725-0.5125-0.6025 0-1.215 0.1688-1.80125 0.4888-0.6475 0.3637-1.28875 0.8912-1.965 1.6137 0.31-1.2375 0.53375-2.5275 0.53375-3.775 0-0.475-0.0312-0.9463-0.1025-1.4038-0.215-1.345-0.65125-2.3949-1.30375-3.1437-0.64375-0.7525-1.5425-1.1675-2.44125-1.16-1.18125 0.01-2.26 0.6425-3.13 1.6362 0.4525-1.4624 0.765-2.9112 0.77125-4.2049 0-1.1838-0.265-2.3388-1.1325-3.1488-0.86875-0.8138-1.89625-1.3112-2.9975-1.3087-0.89375 0-1.775 0.325-2.5925 0.8912-1.1525 0.8025-2.2375 2.0975-3.31875 3.865 0.3025-1.1112 0.50125-2.2562 0.50375-3.3987 0.004-1.6063-0.39875-3.2276-1.465-4.5875-1.53375-1.965-3.70125-2.8738-5.8325-2.8663-2.1925 0.01-4.36125 0.91-6.00375 2.4825-1.64125 1.5675-2.75125 3.8338-2.74875 6.495 0 0.6613-0.005 1.3837-0.0125 2.1288-0.80125-1.1363-1.98-2.6563-3.49625-4.2138-3.0325-3.1038-7.44875-6.395-13.0025-6.8775-0.38155-0.009-0.70781 0.22754-0.955 0.307-0.79375 0.3537-2.52625 1.0838-4.85875 1.8875 3.3813-1.69895 6.47656-3.46765 9.1-5.1938 9.4825-10.7537 12.7512-20.6999 12.7462-29.1937-0.003-8.76-3.4475-15.9012-6.87-20.8387-2.35375-3.3988-4.6725-5.7338-5.925-6.8926 0.0112-0.017 0.0287-0.029 0.0412-0.046 0.98875-1.5449 1.4275-2.9412 1.4275-4.1949 0.005-1.1638-0.3825-2.165-0.935-2.9563-0.56125-0.805-1.26875-1.4013-1.9575-1.875 2.4-0.105 5.8325-0.4763 9.0325-1.7988 2.1225-0.8787 4.15625-2.1924 5.665-4.1612 1.51125-1.9638 2.45625-4.5763 2.45125-7.895 0-1.0925-0.1-2.265-0.3125-3.5188-0.755-4.5424-3.10375-7.4875-6.055-9.1662-2.94875-1.685-6.43375-2.1812-9.63125-2.185-3.16125 0-6.06 0.4925-7.9325 0.9013 0.5075-1.0725 0.78125-2.1438 0.78125-3.1838 0-1.9937-0.87875-3.7837-2.18-5.2225-1.30375-1.4462-3.035-2.58-4.88-3.3425l-0.0225-0.01c-5.72-2.1775-9.96625-2.9625-13.2512-2.9663-4.9175-0.016-7.66125 1.8425-9.52 3.055l-0.24375 0.23c-3.8725 5.4188-7.95625 9.3338-11.3062 11.8838-1.6725 1.2725-3.15875 2.2025-4.33125 2.805-0.65894 0.41053-1.36816 0.58069-2.0675 0.8163-0.53605-1.28569-1.66176-2.23521-2.5875-3.0013-1.53875-0.9912-3.2725-1.435-4.67375-1.845-0.6975-0.2038-1.315-0.3962-1.7575-0.6037-0.84045-0.36784-0.88125-0.95537-1.10125-1.6838-0.0982-0.53104 0.36748-0.78749 0.5637-1.1577 6.51125-8.135 8.8875-17.2001 8.8825-26.0038-0.002-11.7538-4.185-23.07-8.3425-31.4988-1.3775-2.7937-2.73875-5.2274-3.9625-7.2925 1.56735 1.45986 3.27869 3.03921 4.87375 4.2513 1.053 0.94411 2.34513 1.42527 3.535 1.7612 1.07732-0.0875 1.67432-1.01487 2.20625-1.6449 1.29375-2.1026 2.3025-6.02 2.3125-11.5576 0-2.845-0.27625-6.105-0.95-9.7337l-0.0512-0.175c-1.1325-2.7875-2.7225-4.7312-4.5975-5.9513-1.875-1.2212-3.99875-1.7012-6.1375-1.7012-4.36 0.01-8.8525 1.93-12.3 3.8112-2.5575 1.4013-4.52875 2.7938-5.385 3.425-6.46375-3.56-11.9212-4.915-16.4562-4.915-5.90375-0.001-10.1988 2.2813-13.045 4.6663-2.2191 1.8073-3.75104 4.35325-5.7975 5.9475-1.62352-0.5577-2.66111-2.5366-3.5463-3.6362-1.6175-1.8063-4.41875-4.5288-9.82125-8.8763-3.555-2.8737-7.2025-4.0925-10.6562-4.085-3.69625 0-7.12875 1.37-10.065 3.3975-2.9375 2.0312-5.39625 4.725-7.18625 7.46l-0.0838 0.165c-1.32625 3.3962-1.8825 6.59-1.8825 9.5375 0 6.8188 2.96625 12.2563 5.99875 16.0363 1.38375 1.7274 2.775 3.095 3.935 4.1237-1.97875 0.086-4.49 0.9725-6.4125 3.7837-2.05375 2.9913-3.49375 8.0063-3.4975 16.4713 0 0.2975 0.001 0.595 0.005 0.8962 0.0763 6.5325 2.1025 12.1088 5.08125 16.7488 4.4675 6.9612 11.0425 11.8513 16.4925 15.02 2.35375 1.37 4.47 2.3963 6.15 3.145-1.91375-0.034-4.33125-0.3038-6.81875-1.215-2.67375-0.9775-5.395-2.6638-7.64375-5.5675-3.01-3.895-5.915-6.1888-8.62-7.5-3.34828-1.53223-6.70388-1.74786-10.04-1.4487-21.03 8.1325-34.1738 19.9-42.03 32.05-7.855 12.1475-10.4288 24.6413-10.4288 34.2475 0 3.8913 0.4225 7.3138 1.09625 10.0663l0.0425 0.1325c3.90125 9.2637 7.79875 17.1175 11.6475 23.7625-1.58875 0.715-5.37625 2.4975-9.33375 4.92-2.59875 1.5862-5.2675 3.4462-7.44875 5.485-2.75663 2.77297-4.29503 5.28759-4.79125 8.6337-0.0275-0.8837-0.0425-1.7337-0.0425-2.5125 0-2.6637-1.11-4.9275-2.74875-6.4962-1.64375-1.57-3.81375-2.4788-6.00375-2.4813-2.1325-0.01-4.3 0.9013-5.83125 2.8638-1.06375 1.3625-1.46375 2.9787-1.46 4.5825 0.004 1.145 0.2 2.2975 0.50375 3.4138-0.31125-0.5151-0.62625-0.9963-0.94125-1.4288-0.77875-1.0575-1.56125-1.8725-2.38625-2.4437-0.81875-0.5688-1.6975-0.8913-2.59125-0.8913-1.1 0-2.12875 0.4962-3 1.3087-0.86625 0.8101-1.12875 1.9625-1.12875 3.145 0.006 1.2838 0.3075 2.7188 0.75375 4.1675-0.86875-0.97-1.94125-1.5849-3.11-1.5975-0.9-0.01-1.80125 0.4076-2.445 1.16-0.65125 0.7525-1.09 1.8013-1.3025 3.145-0.07 0.4513-0.10125 0.91-0.10125 1.3738 0.003 1.27 0.23375 2.5862 0.5525 3.8475-0.53543-0.68103-1.35408-1.18768-1.975-1.6475-0.585-0.3225-1.20125-0.495-1.805-0.4938-0.6725-0.0009-1.295 0.2038-1.87 0.5113-0.57375 0.3075-1.1125 0.72-1.67 1.1912-0.44786 0.48004-0.39501 1.16873-0.46625 1.67 0.004 1.0563 0.26625 2.3875 0.73625 4.0163 1.65 5.6712 5.95 14.8875 12.0062 24.44 6.055 9.5488 13.8475 19.4 22.5188 26.2238l0.2775 0.1462c3.83375 1.24 7.15125 1.78 10.02 1.78 5.9525 0.012 9.97-2.375 12.3762-5.4637 2.41375-3.0913 3.2825-6.7875 3.28625-9.5588 0-0.84-0.0875-1.5887-0.24125-2.2462 0.94375 0.94 1.88625 1.8825 2.89875 2.7737 0.22609 0.29033 0.5917 0.1279 0.85125 0.184 0 0 0.58375-0.1737 1.73625-0.4887 8.0525-2.1925 43.405-11.0138 91.2112-11.0088 30.385 0 65.8 3.5575 102.439 14.6363-0.0662 0.4712-0.1125 0.97-0.1125 1.5162 0.005 2.7738 0.87125 6.4725 3.28625 9.5663 2.4075 3.0875 6.425 5.48 12.38 5.4662 2.86625 0 6.18125-0.54 10.0125-1.78l0.2775-0.1462c9.915-7.8013 18.685-19.5638 25.0175-30.3038 3.16375-5.3675 5.715-10.48 7.48125-14.7262 0.88375-2.1213 1.57125-4.0276 2.0425-5.6488 0.47125-1.6288 0.7325-2.9575 0.7375-4.0138 0.1144-0.67006-0.25992-1.10484-0.46135-1.6523z" stroke="#2b3786" stroke-width="2.5" fill="#fff"/>
  <path fill="#2b3786" d="m409.184 214.968c-4.14625 0-7.93125 1.5062-11.0938 3.6875-3.14625 2.1937-5.735 5.0638-7.65625 7.9688l-0.0625 0.062-0.125 0.2812-0.0312 0.062-0.0312 0.094c-1.405 3.5825-2.03125 7.0238-2.03125 10.1875 0.015 7.3575 3.22625 13.1875 6.40625 17.1562 0.6075 0.7576 1.22375 1.4051 1.8125 2.0313-0.17375 0.076-0.355 0.1575-0.53125 0.25-1.3725 0.7125-2.73 1.8713-3.84375 3.5-2.355 3.455-3.78125 8.8188-3.78125 17.4687v0.9063c0.0813 6.89 2.2125 12.845 5.34375 17.7187 0.17125 0.2651 0.3875 0.4901 0.5625 0.75-2.47625-0.9624-4.8125-1.25-6.75-1.25h-0.0312c-0.96875 0-1.8675 0.045-2.625 0.094l-0.125 0.031-0.40625 0.094-0.125 0.031-0.0937 0.031c-21.3512 8.2487-34.8375 20.2762-42.9062 32.75-8.07 12.475-10.7188 25.295-10.7188 35.2187 0 4.02 0.4475 7.58 1.15625 10.5v0.062l0.0625 0.1875 0.0312 0.062 0.0312 0.094c3.61125 8.5425 7.2075 15.8925 10.7812 22.25-1.95625 0.935-4.79 2.3788-7.75 4.1875-2.66375 1.6313-5.41125 3.555-7.71875 5.7188h-0.0312c-0.99625 0.94-1.91875 1.9612-2.71875 3.0312-0.57625-1.3062-1.39625-2.4762-2.375-3.4062-1.97-1.8738-4.57-2.9688-7.25-2.9688h-0.0312c-2.63-0.017-5.3625 1.1588-7.21875 3.5625-0.94125 1.1988-1.425 2.5588-1.65625 3.9063-0.0638-0.046-0.1225-0.1113-0.1875-0.1563-1.0325-0.7275-2.28625-1.2187-3.625-1.2187-1.66125 0-3.12125 0.7487-4.21875 1.7812-0.69375 0.645-1.1325 1.445-1.375 2.2188-0.25875 0.7737-0.295 1.5362-0.3125 2.25 0.004 0.2812 0.006 0.59 0.0312 0.875-0.19625-0.024-0.395-0.094-0.59375-0.094h-0.0312c-1.4525 0-2.83 0.6675-3.78125 1.7812-0.935 1.0813-1.47375 2.4663-1.71875 4.0313-0.0962 0.5662-0.125 1.125-0.125 1.6562v0.125c-0.4625-0.1325-0.91875-0.2187-1.40625-0.2187h-0.0312-0.0312c-1.035 0.01-1.92125 0.3187-2.65625 0.7187-0.75875 0.4025-1.4025 0.8913-2 1.4063-0.42549 0.37346-0.57542 0.60412-0.75 1.0625-0.2725 0.6925-0.34375 1.3875-0.34375 1.9687 0 1.3575 0.31125 2.8225 0.8125 4.5313 1.72625 5.94 6.085 15.2237 12.2188 24.9062 6.1325 9.6675 13.9975 19.6688 22.9062 26.6875 0.24254 0.19943 0.57244 0.27579 0.84375 0.4065 3.96875 1.29 7.46375 1.875 10.5625 1.875h0.0625c6.4075 0.018 11.0238-2.655 13.7188-6.1563 2.16-2.7762 3.1975-5.8862 3.53125-8.625 0.38706 0.36318 0.66368 0.45396 1.34375 0.5 0.9825 0.0632 1.99242-0.32383 2.7187-0.5618 7.94125-2.1637 43.1575-10.9375 90.7188-10.9375 29.8762 0 64.6275 3.4613 100.562 14.1563v0.1875c0.0175 3.13 0.94625 7.185 3.65625 10.6875 2.695 3.4862 7.34625 6.14 13.75 6.125h0.0312c3.10125 0 6.62125-0.5838 10.5938-1.875l0.125-0.031 0.4375-0.2187 0.125-0.062 0.15625-0.125c10.1838-8.02 19.015-19.905 25.4375-30.7813 3.19375-5.4225 5.78625-10.6275 7.59375-14.9687 0.9025-2.1625 1.59625-4.1325 2.09375-5.8438 0.48625-1.7112 0.795-3.1625 0.8125-4.5 0-0.5812-0.0701-1.2437-0.34375-1.9375-0.0889-0.44789-0.48785-0.74882-0.75-1.0937-0.59625-0.5-1.22625-1.0038-1.96875-1.4063-0.7575-0.405-1.68375-0.7187-2.71875-0.7187h-0.0312-0.0312c-0.48125 0.01-0.96 0.089-1.40625 0.2187v-0.094c0-0.5662-0.0275-1.1237-0.125-1.6875-0.24125-1.565-0.78125-2.9512-1.71875-4.0312-0.9525-1.115-2.295-1.7813-3.75-1.7813-0.23167-0.011-0.4633 0.0664-0.65625 0.094 0.025-0.2862 0.0312-0.5887 0.0312-0.875 0-0.725-0.0562-1.4737-0.3125-2.25-0.24375-0.7587-0.69875-1.5575-1.375-2.1875-1.09625-1.05-2.57125-1.8125-4.21875-1.8125h-0.0625v0.031c-1.29875 0.015-2.53 0.475-3.5625 1.1875-0.0562 0.039-0.1025 0.086-0.15625 0.125-0.23125-1.345-0.75-2.6787-1.6875-3.875-1.87375-2.4025-4.5575-3.5812-7.1875-3.5625h-0.0625c-2.67875 0-5.25125 1.0988-7.21875 2.9688-1.41875 1.3625-2.50625 3.1675-3 5.25-0.23875-0.2638-0.49125-0.5125-0.75-0.7813-1.59875-1.6312-3.58125-3.3487-5.9375-4.7187-1.4125-0.8225-2.96875-1.5075-4.65625-2 0.1325-0.086 0.2425-0.1638 0.375-0.25l0.125-0.062 0.28125-0.25 0.0937-0.062 0.0937-0.094c9.655-10.945 13.1438-21.3188 13.1562-30.25v-0.031-0.094c0-9.2488-3.60375-16.7263-7.15625-21.875-1.90625-2.7388-3.79375-4.8225-5.15625-6.1875 0.6625-1.3325 1-2.625 1-3.9063v-0.031c0-1.2913-0.37375-2.425-0.90625-3.375 1.8575-0.2787 3.92375-0.735 5.9375-1.5625 2.325-0.9675 4.64625-2.4737 6.40625-4.75 1.74875-2.265 2.8025-5.2825 2.8125-8.9062v-0.031-0.031c0-1.1949-0.0862-2.4749-0.3125-3.8125-0.80625-5.02-3.5775-8.55-6.96875-10.4375-3.3575-1.9187-7.12625-2.4062-10.5-2.4062-1.9925 0-3.83625 0.1725-5.4375 0.4062 0.0263-0.2349 0.0575-0.4799 0.0625-0.7187v-0.062-0.125c0-2.535-1.10625-4.7588-2.625-6.4375-1.50375-1.6462-3.38125-2.8625-5.40625-3.7188v-0.031h-0.0312-0.0312l-0.0312-0.031-0.0937-0.031c-5.85785-2.2276-10.3078-3.0939-13.8754-3.0939h-0.0937c-2.66125 0-4.805 0.5238-6.53125 1.2188-1.71125 0.6775-2.97125 1.5274-3.875 2.125-0.30504 0.16552-0.50377 0.46202-0.74995 0.6878-3.76 5.2612-7.71125 9.0788-10.9062 11.5312-1.5975 1.21-3.015 2.0926-4.0625 2.625-0.16625 0.083-0.32375 0.1488-0.46875 0.2188-0.695-0.9762-1.5275-1.7412-2.40625-2.3125-1.8575-1.1775-3.8-1.6887-5.15625-2.0938-0.655-0.1862-1.1975-0.3425-1.46875-0.4687-0.006-0.0547 0.0634-0.0839 0.0937-0.124 6.7825-8.455 9.24125-17.9588 9.25-27.0625v-0.031-0.031c-0.0162-11.9463-4.135-23.2337-8.28125-31.75 0.015 0.01 0.05-0.01 0.0625 0v0.031h0.0312c0.6125 0.3238 1.405 0.7325 2.46875 0.75h0.0312c0.3875 0 0.87375-0.056 1.375-0.2812 0.5475-0.2438 1.02125-0.6138 1.40625-1 0.38875-0.3901 0.66375-0.7675 0.9375-1.1875v-0.031c0.80625-1.2887 1.42125-2.98 1.875-5.0625 0.45125-2.0825 0.71875-4.5649 0.71875-7.4375 0-2.9537-0.29-6.3349-0.96875-10.0625v-0.094l-0.0937-0.25-0.0312-0.094-0.0312-0.094c-1.2425-3.0499-3.055-5.3287-5.28125-6.7812-2.2275-1.435-4.72-1.9688-7.125-1.9688-4.8875 0.033-9.59 2.0625-13.1562 4-1.9775 1.0888-3.5775 2.1563-4.65625 2.9063-6.23125-3.26-11.6588-4.5938-16.3125-4.5938-6.37375-0.015-11.105 2.4963-14.1875 5.0938-1.55 1.2912-2.70875 2.5775-3.53125 3.625-0.42998 0.51569-0.79841 1.09135-1.15625 1.5937-0.69797-0.96561-1.5445-1.97522-2.1875-2.75-1.70875-1.9037-4.5775-4.6724-10.0312-9.0625-3.81-3.0987-7.8775-4.4687-11.75-4.4687h-0.0312zm0.15625 3.5938c2.97471 0.024 6.11993 1.0869 9.34375 3.6875 5.35395 4.3101 8.10094 6.9852 9.625 8.6875 1.50786 1.6841 1.81092 2.4373 2.5625 3.1875 0.0107 0.011 0.0204 0.021 0.0312 0.031 0.75491 0.7483 1.74195 1.1062 2.65625 1 0.92739-0.1076 1.73452-0.6447 2.3125-1.4062 0.18697-0.2509 0.38104-0.5763 0.75-1.0938 0.36896-0.5174 0.88186-1.1864 1.53125-1.9062 1.29877-1.4396 3.18351-3.1016 5.71875-4.3438 5.07048-2.4841 12.7862-3.3473 24.25 3.125 0.32881 0.18688 0.77161 0.14771 1.0625-0.094 0 0 5.14637-4.0383 11-6.0625 2.92681-1.0122 6.00557-1.4729 8.625-0.8125 2.59344 0.6538 4.81807 2.3505 6.375 6.0937 1.15408 6.2848 1.07974 11.3823 0.46875 14.9688-0.30716 1.8029-0.75806 3.2398-1.21875 4.2187-0.42136 0.8953-0.86041 1.3815-1.03125 1.5 0.009-0.024-0.1525-0.031-0.4375-0.1562-0.38012-0.1674-0.92702-0.4748-1.53125-0.9063-1.20845-0.863-2.70883-2.1623-4.1875-3.5312-2.95734-2.7379-5.84674-5.7751-6.625-6.5625-0.44033-0.50123-0.76599-0.2814-1.37495-0.0315-0.2743 0.2114-0.26629 0.657-0.25 0.7812 0.11201 0.70013 0.71979 1.3066 1.06245 1.8125 0.71148 1.061 1.7795 2.6948 3.03125 4.7813 2.50349 4.1728 5.75085 10.1914 8.28125 17.1562 5.0608 13.9297 7.30993 31.5124-4.375 46.125l0.0312 0.031c-0.12661 0.1108-0.51173 0.3921-0.78125 1.0625-0.31554 0.7849-0.33743 1.9577 0.375 3.2188-0.00017 0.0103-0.00017 0.0207 0 0.031 0.49112 0.8581 1.34009 1.2404 2.21875 1.5625 0.87866 0.3223 1.83923 0.5689 2.8125 0.875 1.41571 0.4454 2.75557 1.006 3.71875 2-2.01063-0.3461-3.95032-0.2645-5.71875 0.1875-6.4135 1.5994-10.8216 7.6184-10.4688 13.5625-0.00068 0.0207-0.00068 0.0413 0 0.062 0.4286 3.0184 1.34031 5.4106 2.59375 7.2813 2.86563 4.2071 7.44473 5.5495 11.8438 5.6562-1.69564 0.4691-3.32533 0.8773-4.65625 1.0625-0.85844 0.1174-1.63263 0.4544-2.15625 1.0625-0.52362 0.6082-0.71761 1.4757-0.5625 2.3125 0.31022 1.6737 1.75627 3.3126 4.53125 4.9063 2.24287 1.2881 5.69738 2.474 9.96875 3.5-0.45204-0.069-0.85726-0.08-1.3125-0.1563-13.997-2.3423-29.2188-8.3032-35.9688-22.5625-0.0557-0.13162-0.14193-0.25019-0.25-0.3437 0 0-1.20387-1.017-2.84375-1.125-0.81994-0.054-1.81321 0.1735-2.625 0.875s-1.42264 1.8064-1.84375 3.4375c-0.0538 0.19434-0.0427 0.40607 0.0312 0.5937 0 0 0.25289 0.6696 0.40625 1.0313-0.0627-0.0732-0.13677-0.13674-0.21875-0.1875 0 0-1.23651-0.7256-2.71875-0.6875-0.74112 0.019-1.60048 0.2773-2.21875 1-0.61827 0.7228-0.9375 1.7955-0.9375 3.2187 0 0.2808 0.0346 0.5536 0.0625 0.8125-0.32018-0.117-0.95196-0.3265-1.90625-0.2812-0.17837 0.01-0.3754 0.031-0.5625 0.062-0.74842 0.1245-1.57879 0.4805-2.21875 1.2187-0.63996 0.7383-1.06322 1.8245-1.1875 3.25-0.006 0.17394 0.038 0.34926 0.125 0.5-0.47849-0.1301-1.13504-0.2222-1.84375-0.062-0.70871 0.1598-1.47148 0.6551-1.9375 1.5-0.46206 0.8378-0.68222 1.9887-0.625 3.5313 0.00032 0.01-0.00038 0.023 0 0.031 0.0566 1.3102 0.74422 2.9174 1.90625 4.9375 0.99746 1.734 2.40645 3.7453 4.1875 5.9063-3.38165 0.4878-13.4447 2.4132-20.125 8.7187-0.57063-1.0857-1.61647-2.8666-3.6875-4.6562-2.88284-2.4912-7.48154-4.1559-13.1562-0.9688-0.92514 0.5226-1.75418 1.1176-2.5625 1.7188 1.38647-2.0747 2.43954-3.7465 2.6875-5.375 0.004-0.052 0.004-0.10432 0-0.1563-0.11598-2.6187-0.52476-4.3636-1.21875-5.5312-0.69399-1.1677-1.80088-1.7203-2.78125-1.7188-1.83572 0-3.08478 1.267-3.25 1.4375-0.21681-0.9684-0.47689-1.8286-0.90625-2.3437-0.5256-0.6307-1.37382-0.8709-2-0.75-1.25235 0.2417-1.875 1.25-1.875 1.25-0.12684 0.11745-0.18722 0.29089-0.28125 0.437-0.19464-1.1224-0.52798-1.992-1.09375-2.5625-0.67157-0.6773-1.58468-0.8813-2.3125-0.8125-0.72782 0.069-1.34348 0.3253-1.78125 0.5625-0.9391 0.52988-0.92729 1.06289-1.3437 1.8747-0.0749 0.182-0.19134 0.4446-0.28125 0.6563-0.0711-0.5361-0.0226-1.0661-0.21875-1.5625-0.20796-0.5264-0.51252-1.0547-1.03125-1.4063s-1.22109-0.4701-1.90625-0.3437c-1.37032 0.2527-2.81665 1.2844-4.84375 3.3437-3.2117 3.2441-5.52195 7.9755-7.09375 12.8125 3.4214-15.7125 12-28.5312 12-28.5312 0.30388-0.40795 0.18912-1.06239-0.23543-1.34261-0.42455-0.28021-1.07142-0.12847-1.32707 0.31131 0 0-15.7089 23.198-13.4375 46.3125 0.33008 3.7255 1.15996 7.4295 2.59375 11.0313 0.0865 0.21728 0.2575 0.39965 0.46875 0.5 4.32877 1.9995 10.9289 1.2184 16.875 1.2187 2.97303 0.0002 5.78773 0.1689 7.9375 0.8438 2.09038 0.6562 3.4881 1.7216 4.21875 3.5625-0.001 1.102 0.01 1.9748-0.21875 2.375-0.12334 0.2159-0.30319 0.4116-0.71875 0.5937s-1.08049 0.339-2.0625 0.4063c-4.00345 0.2922-12.0938-0.3125-12.0938-0.3125-0.45786-0.0216-0.90202 0.34202-0.97114 0.79516-0.0691 0.45313 0.2464 0.93269 0.68989 1.04854l0.125 0.031 12.0625 2.875c0.14579 0.1723 0.83948 0.9756 1.09375 1.8438 0.14048 0.4796 0.12684 0.8192-0.0625 1.125-0.18934 0.3057-0.67621 0.701-1.875 0.9687-3.77867 0.12167-7.57266-0.22295-11.2812-0.906-0.46402-0.0921-0.97186 0.22687-1.09031 0.68489-0.11845 0.45801 0.17105 0.98322 0.62156 1.12761 3.19769 1.22691 6.40187 2.51689 9.59375 3.781 0.0912 0.093 1.17527 1.1994 1.5625 2.2188 0.20165 0.5308 0.19608 0.8431 0 1.125-0.19217 0.2762-0.8086 0.696-2.25 0.9062-3.57759 0.2584-9.89817-1.167-10.9062-1.4062-0.0307-0.012-0.0619-0.0223-0.0937-0.031h-0.0625c-0.46402-0.0921-0.97186 0.22687-1.09031 0.68489-0.11845 0.45801 0.17105 0.98322 0.62156 1.12761h0.0312l8.90625 3.1562c0.11493 0.1224 1.16223 1.2271 1.59375 2.4063 0.22742 0.6214 0.24482 1.1282 0.0312 1.5312-0.2024 0.382-0.7127 0.8241-1.96875 1.1563-0.17394-0.006-0.34926 0.038-0.5 0.125-0.0106 0.0101-0.021 0.0204-0.0312 0.031-2.70492 0.6122-8.609 1.4169-16.5625-2.125-8.27286-3.6842-18.7504-12.1322-29.8438-30.7188-4.11551-6.9016-8.31906-15.1806-12.5-25.125-1.87328-7.6685-1.75057-21.4762 5.0625-35.6875 6.80071-14.1855 20.2376-28.8328 45.0625-38.4687 2.04547-0.147 4.42083-0.2688 7.15625 0.6875 2.80021 0.9789 5.99777 3.0979 9.5 7.625 7.52912 9.7322 20.0625 7.2187 20.0625 7.2187 0.40306-0.0828 0.72647-0.45909 0.74771-0.87002 0.0213-0.41092-0.26164-0.81858-0.65401-0.94248 0 0-7.47322-2.5104-15-8.125s-14.977-14.2315-15.125-26.5625c-0.1414-12.0643 2.63739-16.7045 5.21875-18.375 2.51941-1.6305 5.17422-0.6804 5.625-0.5 0.031 0.015 0.0614 0.019 0.0937 0.031 0.0422 0.016 0.0808 0.02 0.125 0.031 0.0781 0.019 0.25 0.031 0.25 0.031 0.78237-0.0401 1.12243-1.28693 0.46875-1.7187-0.007-0.01-0.0847-0.056-0.0937-0.062-0.61326-0.4273-4.71638-3.3068-7.9375-8.3438-3.26039-5.0984-5.53333-12.2279-2.0625-21.1875 2.44952-3.7125 6.27733-7.3227 10.6562-8.9687 1.65522-0.6222 3.37143-0.9833 5.15625-0.9688zm0.59375 10.375c-1.4777 0.021-2.8453 0.2539-3.9375 0.8125-0.5461 0.2792-1.01314 0.6402-1.40625 1.0937-0.78621 0.9071-1.23973 2.1739-1.1875 3.9375 0.001 0.05-0.002 0.106 0 0.1563 0.0376 0.8457 0.19252 1.8017 0.46875 2.875 0.43852 1.7037 1.20005 3.7123 2.34375 6.0625 0.38123 0.7834 0.81223 1.6068 1.28125 2.4687 0 0 0.0704-0.2541 0.1875-0.625 0.002-0.01-0.002-0.024 0-0.031 0.1912-0.6001 0.53636-1.5825 1.0625-2.75 0.004-0.01-0.004-0.023 0-0.031 0.17775-0.3932 0.37359-0.7912 0.59375-1.2187 0.43951-0.8567 0.97094-1.7508 1.59375-2.6563 0.31602-0.458 0.63337-0.9274 1-1.375 0.36068-0.4428 0.74399-0.8633 1.15625-1.2812 0.41266-0.4173 0.87725-0.8099 1.34375-1.1875 1.16625-0.9443 2.50349-1.7456 4.03125-2.2813 0.91666-0.3214 1.88041-0.5484 2.9375-0.6562 0.70473-0.072 1.44875-0.104 2.21875-0.062 0 0-1.94197-0.8332-4.625-1.6563-1.34278-0.415-2.87628-0.8217-4.4375-1.125s-3.1473-0.49-4.625-0.4687zm31.625 32.1875c-4.94875 0-8.96875 2.6337-8.96875 5.8437s4.02 5.8125 8.96875 5.8125 8.96875-2.6025 8.96875-5.8125-4.02-5.8437-8.96875-5.8437zm37.3125 0.4375c-4.0175 0-7.28125 2.6337-7.28125 5.8437 0 2.6897 2.29803 4.9628 5.40625 5.625-0.15688 0.33366-0.0924 0.75908 0.15625 1.0313 2.64674 2.9436 4.58918 5.6491 5.90625 8.125-0.18469 0.34782-0.11844 0.81151 0.15625 1.0937 0.27178 0.3041 0.52074 0.5685 0.75 0.8438 1.94162 4.5875 1.66864 8.2056-0.15625 11.2812-1.83393 3.0908-5.37578 5.6598-10.0938 7.6563h-0.0312c-2.90435 1.2114-6.39667 0.9536-10.0312-0.2188-3.64598-1.1761-7.39396-3.2351-10.7812-5.5-6.21941-4.1586-10.9239-8.7197-11.6875-9.4687 0.0263-0.01 0.15625-0.062 0.15625-0.062 0.49119-0.0569 0.88624-0.55582 0.82894-1.04697s-0.55659-0.88576-1.04769-0.82803c-0.0312-0.002-0.0625-0.002-0.0937 0-0.0538 0.0159-0.10616 0.0367-0.15625 0.062 0 0-1.66371 0.4163-3.0625 1.6562s-2.50326 3.5356-1.375 6.5313c0.14151 0.49651 0.74751 0.80218 1.23092 0.62089 0.4834-0.18129 0.73896-0.81007 0.51908-1.27719-0.89799-2.3843-0.13339-3.5749 0.875-4.4687 0.12273-0.1088 0.24721-0.1881 0.375-0.2813 0.0376 0.0455 0.0795 0.0874 0.125 0.125 0 0 5.29333 5.3173 12.25 9.9688 3.47834 2.3257 7.38083 4.523 11.2812 5.7812 3.90042 1.2582 7.86118 1.5905 11.3438 0.125 4.95069-2.0906 8.82969-4.8324 10.9688-8.4375 0.11086-0.1868 0.21177-0.3713 0.3125-0.5625-0.0308 0.075-0.0615 0.1434-0.0937 0.2188-1.83676 4.2922-6.23295 8.9918-13.4375 13.6562-3.62451 2.3455-7.21023 2.8721-10.6562 2.375-3.44602-0.4971-6.73004-2.056-9.59375-3.9375-5.72742-3.7629-9.65625-8.75-9.65625-8.75-0.2859-0.42921-0.95509-0.53592-1.3603-0.21691s-0.45856 0.99455-0.10845 1.37321c0 0 4.05805 5.1907 10.0938 9.1562 3.01785 1.9827 6.55188 3.6672 10.375 4.2188 3.82312 0.5515 7.94076-0.07 11.9375-2.6563 7.3917-4.7856 12.0618-9.6472 14.125-14.4687 2.04816-4.7863 1.37632-9.5551-1.75-13.5938-1.32064-3.0455-3.52296-6.3568-6.6875-9.9375 4.01917-0.014 7.25-2.6121 7.25-5.8125 0-3.21-3.24749-5.8437-7.28125-5.8437zm-39.0312 3.375c0.90125 0 1.625 0.4937 1.625 1.125 0 0.6312-0.72375 1.1562-1.625 1.1562s-1.625-0.525-1.625-1.1562c0-0.6313 0.72375-1.125 1.625-1.125zm38.4062 0.7812c0.77375 0 1.375 0.4288 1.375 0.9688 0 0.5412-0.60125 0.9687-1.375 0.9687-0.77125 0-1.40625-0.4275-1.40625-0.9687 0-0.54 0.635-0.9688 1.40625-0.9688zm-7.4375 19.1563c-5.00375 0-9.09375 2.2125-9.09375 4.9375 0 2.7262 4.09 4.9375 9.09375 4.9375 5.02 0 9.0625-2.2113 9.0625-4.9375 0-2.725-4.0425-4.9375-9.0625-4.9375zm53.8438 16.4062c0.43656-0.023 0.88736-0.015 1.375 0 2.92584 0.09 6.79215 0.8615 12 2.8438h0.0312c2.29001 0.9386 4.3328 2.599 5.28125 4.4687 0.95193 1.8765 0.98043 3.9388-0.96875 6.4063-0.46969 0.62083 0.25022 1.67817 1 1.4687 0 0 5.38285-1.6105 11-1.3125 2.80858 0.149 5.6351 0.7717 7.875 2.25s3.95796 3.7676 4.59375 7.5313c0.64673 3.828 0.15843 6.614-0.9375 8.6875-1.09593 2.0734-2.84303 3.4831-4.84375 4.4687-4.00144 1.9712-9.00756 2.0938-11.2188 2.0938-0.29188 0-0.5499 0.016-0.75 0.031s-0.32107-0.016-0.65625 0.1563c-0.16759 0.086-0.47862 0.3273-0.53125 0.75-0.0526 0.4227 0.14399 0.6926 0.25 0.8125 0.21202 0.2397 0.329 0.2644 0.46875 0.3437 0.55898 0.3174 1.40747 0.7086 2.25 1.3125 0.84253 0.604 1.59616 1.3704 1.875 2.3438 0.27495 0.9598 0.17449 2.2096-0.96875 4.0312-0.003 0.01-0.0281 0-0.0312 0-0.0842-0.00096-0.16856 0.01-0.25 0.031-0.0423 0.007-0.0841 0.0178-0.125 0.031-2.58246 0.9192-4.35093 2.9007-5.5625 5.2187s-1.90662 5.0226-2.4375 7.6563c-0.53088 2.6336-0.89189 5.1823-1.34375 7.1875-0.45186 2.0051-1.10849 3.3574-1.59375 3.6562-1.62457 0.9957-4.88532 1.5082-8.71875 1.6563-3.83343 0.148-8.25456 0-12.3125 0-0.0842-0.00096-0.16856 0.01-0.25 0.031-2.14212 0.6331-3.56945 1.5351-4.4375 2.625-0.86805 1.0898-1.1296 2.3307-1.0625 3.4062 0.13421 2.1511 1.4375 3.8125 1.4375 3.8125 0.13059 0.17099 0.32177 0.29472 0.53125 0.3438l5.03125 1.0937c-1.76433 0.037-3.5807 0.1257-5.0625 0.031-0.18421-0.0118-0.37165 0.0323-0.53125 0.125-1.31482 0.7386-2.15993 1.5872-2.625 2.5s-0.51745 1.8493-0.375 2.625c0.28491 1.5513 1.28125 2.5937 1.28125 2.5937 0.12393 0.13724 0.28935 0.23651 0.46875 0.2813l5.125 1.25c-1.50197 0.091-1.42391 0-3.5 0.2187-0.11917 0.009-0.23656 0.0411-0.34375 0.094-1.4752 0.7379-2.40086 1.6244-2.875 2.625-0.47414 1.0005-0.44656 2.0291-0.21875 2.875 0.45563 1.6917 1.65625 2.8437 1.65625 2.8437 0.14015 0.1482 0.3299 0.24867 0.53125 0.2813l3.78125 0.594c-1.87141 0.3371-3.89445 0.6656-5.1875 1.1875-0.94841 0.3808-1.60636 1.1119-1.8125 1.9063-0.20614 0.7943-0.0251 1.5451 0.25 2.1875 0.27515 0.6423 0.68132 1.1985 1.0625 1.625 0.19059 0.2132 0.36197 0.3795 0.5625 0.5312-1.03794-0.6258-2.02823-1.3469-2.96875-2.1875-0.16051-0.1493-0.37479-0.23952-0.59375-0.25-0.20109 0.00001-0.40162 0.0668-0.5625 0.1875 0 0-18.8294 13.0791-42.5 22.2188-11.8353 4.5698-24.8717 8.1558-37.3125 8.625-11.8602 0.4472-23.1729-1.9083-32.5-8.8438 0.7934-0.4108 1.34824-0.9535 1.6875-1.5937 0.54281-1.0245 0.39539-2.1529 0.0625-3.0625-0.66578-1.8193-2.125-3.1875-2.125-3.1875-0.0935-0.10808-0.21212-0.19432-0.34375-0.25l-0.4375-0.1563c0.78039 0.037 1.61721 0.2377 2.3125 0.1875 0.0104 0.00017 0.0208 0.00017 0.0312 0 1.77546-0.2424 2.98378-0.7657 3.625-1.6875s0.51038-2.0563 0.1875-2.9062c-0.64576-1.7-2.09375-3-2.09375-3-0.0906-0.0821-0.19744-0.14617-0.3125-0.1875l-3.46875-1.375c1.63237 0.1109 3.20491 0.2819 4.96875 0.1875 0.052 0.004 0.10429 0.004 0.15625 0 1.49121-0.333 2.52223-0.94 3.0625-1.8125 0.54027-0.8726 0.4817-1.8652 0.25-2.6563-0.46341-1.5822-1.625-2.7812-1.625-2.7812-2.86677-1.15175-5.29488-1.09817-0.9375-1.125 0.0125-0.0009 0.0188 0.0008 0.0312 0 1.09812-0.078 1.95695-0.2248 2.65625-0.5313 0.70721-0.3099 1.26912-0.8066 1.59375-1.375 0.64926-1.1368 0.5-2.3386 0.5-3.5-0.003-0.10671-0.0241-0.21291-0.0625-0.3125-0.93037-2.5423-3.00782-4.0614-5.5-4.8437-2.49218-0.7824-5.4571-0.9374-8.5-0.9375-0.1241-0.0001-0.25059-0.0004-0.375 0 2.11198-1.0042 3.4375-2.125 3.4375-2.125 0.16555-0.14328 0.2783-0.34624 0.3125-0.5625 0.74215-3.8326 1.78531-7.1822 3-10.1563 0.0112-0.0203 0.0216-0.041 0.0312-0.062 0.057-0.1827 0.13045-0.3828 0.21875-0.5937 0.59958-1.4328 1.23778-2.7652 1.875-4.0313 0.0239-0.04 0.0448-0.0819 0.0625-0.125 0.01-0.019 0.0172-0.043 0.0312-0.062 0.009-0.012 0.0251-0.019 0.0312-0.031 0.003-0.01-0.003-0.021 0-0.031 0.007-0.012 0.0244-0.019 0.0312-0.031 0.0515-0.092 0.10334-0.1889 0.15625-0.2813 1.95027-3.4032 4.87256-6.9645 9.25-9.4375 5.08404-2.8553 8.5344-1.4076 11.0312 0.75 2.49685 2.1577 3.78125 5.0938 3.78125 5.0938 0.24895 0.57636 1.14615 0.71991 1.5625 0.25 7.25983-7.6861 21.125-9.0938 21.125-9.0938 0.0312 0.002 0.0625 0.002 0.0937 0 9.01533 10.1803 26.11 23.0379 51.0312 26.875 0.49087 0.0736 1.00449-0.306 1.07812-0.79688 0.0736-0.49087-0.306-1.00449-0.79687-1.07812-24.9064-3.8348-41.8687-16.8535-50.4688-26.8125-0.0104-0.00017-0.0208-0.00017-0.0312 0-0.018-0.021-0.0134-0.042-0.0312-0.062-0.0102-0.0106-0.0206-0.0209-0.0312-0.031-2.13679-2.4773-3.76427-4.7796-4.84375-6.6562-1.09424-1.9023-1.63252-3.4539-1.65625-4.0938-0.0539-1.3506 0.17782-2.1483 0.40625-2.5625 0.22843-0.4141 0.41214-0.5004 0.6875-0.5625 0.55071-0.1241 1.375 0.2188 1.375 0.2188l5.1875 3.9062c0.0851 0.11411 0.17036 0.15096 0.281 0.249 0.3818 0.25228 0.94828 0.16769 1.23973-0.18512s0.26759-0.92506-0.0522-1.25238c-0.0174-0.016-0.075-0.076-0.0937-0.094-0.49324-0.4679-1.45091-1.4105-2.4375-2.4688-0.93689-1.005-1.76937-2.0545-2.21875-2.7812 0.13135-0.8871 0.34375-1.5506 0.625-1.875 0.32344-0.3732 0.70108-0.5545 1.125-0.625 0.83319-0.1386 1.71846 0.2074 1.75 0.2187 0.00055 0.0002 0.0312 0 0.0312 0 0.14566 0.1139 0.6788 0.527 1.4375 1.0938 0.093 0.0967 0.18892 0.16679 0.2809 0.248 0.84352 1.054 1.86145 1.6827 2.75 2.0625 0.40771 0.20519 0.80352 0.50251 1.1874 0.748 0.14636 0.079 0.24277 0.1676 0.5625 0.2187 0.15986 0.025 0.55656 0.085 0.90625-0.3125 0.33913-0.3855 0.242-0.7984 0.1875-0.9687 0.0197-0.0395-0.0204-0.0203-0.0312-0.031-0.22325-0.6021-0.60454-0.7198-0.875-0.8438-0.33109-0.0711-0.61087-0.2484-0.8435-0.343-0.0162-0.012-0.0461-0.02-0.0625-0.031-0.76614-0.5451-1.74625-1.2564-2.59375-1.9062-0.0267-0.066-0.0849-0.10597-0.125-0.156-0.37986-0.6295-0.59375-1.3696-0.59375-2.4375 0-1.1498 0.24304-1.7361 0.46875-2 0.22571-0.2638 0.49081-0.3338 0.875-0.3437 0.72724-0.019 1.58864 0.3905 1.6875 0.4375 0.21201 0.2394 2.72953 3.0881 3.84375 4.4375 0.13854 0.21326 0.30407 0.37706 0.59355 0.529 0.16341 0.048 0.33309 0.0206 0.5 0.031 0.3211-0.0987 0.34788-0.14577 0.46875-0.2495 0.23457-0.24798 0.24996-0.4374 0.25-0.4375 0.121-0.3117-0.11069-0.57544-0.1562-0.812-1.00299-1.9323-2.65228-5.8476-2.84375-6.3125 0.3472-1.172 0.76544-1.9435 1.15625-2.2813 0.42712-0.369 0.83931-0.4353 1.28125-0.4062 0.83915 0.055 1.63202 0.6267 1.71875 0.6875 7.20586 14.8146 22.9732 20.939 37.1562 23.3125 14.1939 2.3753 26.8011 1.062 28.1875 0.9062 0.0349 0.0001 0.0589 0 0.0937 0 0.0104 0.00017 0.0208 0.00017 0.0312 0 0.49109-0.008 0.93071-0.46202 0.92254-0.95311-0.008-0.49109-0.46266-0.9304-0.95374-0.92189-0.0702 0-0.11757 0.0001-0.1875 0-19.6785-0.021-30.4834-2.9626-35.5-5.8437-2.51721-1.4457-3.48655-2.8781-3.625-3.625-0.0692-0.3735 0.001-0.5698 0.15625-0.75 0.1551-0.1801 0.45063-0.3667 0.96875-0.4375 5.12629-0.7134 13.1936-3.7255 16-4.8125 0.0889-0.0289 0.17352-0.0712 0.25-0.125 0.0317-0.009 0.063-0.019 0.0937-0.031 0.00036 0 0 0.031 0 0.031 0.00022 0 0.0797-0.027 0.0937-0.031 0.0561-0.016 0.0512 0 0.0625 0 0.0204-0.01 0.0428-0.024 0.0625-0.031 0.0197-0.01 0.0424-0.023 0.0625-0.031 0.0201-0.01 0.0409-0.022 0.0625-0.031 0.0216-0.01 0.0382-0.021 0.0625-0.031h0.0312c0.0318-0.009 0.063-0.019 0.0937-0.031 0.0282-0.01 0.0595-0.0003 0.125-0.031 0.0218-0.0197 0.0427-0.0404 0.0625-0.062 0.0212-0.01 0.0421-0.0199 0.0625-0.031 0.0104 0.00017 0.0208 0.00017 0.0312 0 0.0218-0.0197 0.0426-0.0404 0.0625-0.062 0.0147-0.011 0.0179-0.019 0.0312-0.031 0.53914-0.49856 0.13981-1.59147-0.59375-1.625 0 0-0.16514 0.076-0.25 0.094-0.0312-0.002-0.0625-0.002-0.0937 0h-0.0312v-0.031c-0.009 0-0.0479 0.027-0.0625 0.031-0.0146 0-0.0408 0.024-0.0625 0.031-0.0183 0.01-0.0383-0.01-0.0625 0-0.0221 0.01-0.0713 0.023-0.0937 0.031-0.0209 0.01-0.0415 0.0199-0.0616 0.031h-0.0312c-2.16968 0.7497-6.31702 1.9639-10.5625 2.0313-4.30782 0.068-8.55427-1.0129-11.1875-4.8125 2.48488-1.4884 12.0998-8.039 6.875-17.4375l-0.15625-0.6563c0.0104 0.00017 0.0208 0.00017 0.0312 0 2.00932-0.5136 4.23913-0.5203 6.625 0.2188 0.34493 0.16161 0.73252 0.1936 1.06245 0.2808 0.88579 0 1.80801-0.366 3.09375-1.0312 1.28574-0.6653 2.84705-1.6378 4.59375-2.9688 3.44808-2.6275 7.60156-6.6379 11.5312-12.0937 1.56508-1.0128 3.29807-2.207 6.375-2.5938 0.39112-0.049 0.81344-0.1023 1.25-0.125zm-10.1875 17.9375c-1.76118 0.113-4.30231 0.8519-7.90625 2.4375 0 0 10.31 1.7813 8.75 7.375 0 0 6.16193-9.5778-0.125-9.8125-0.22004-0.01-0.46715-0.016-0.71875 0zm36.625 0.5938c-0.75911 0.20289-0.82733 1.49979-0.0937 1.7812 0 0 2.61876 1.2156 4.375 3.125 0.87812 0.9547 1.50087 2.0338 1.59375 3.1875 0.0929 1.1537-0.28597 2.4642-1.78125 4.0625-0.33557 0.35995-0.31331 0.99281 0.0467 1.3283 0.36003 0.33549 0.99288 0.3131 1.32829-0.047 1.75098-1.8717 2.41993-3.7773 2.28125-5.5-0.13868-1.7228-1.03999-3.1669-2.09375-4.3125-2.10751-2.2913-4.96875-3.5313-4.96875-3.5313-0.17181-0.0883-0.37132-0.12161-0.5625-0.094-0.0208-0.00069-0.0417-0.00069-0.0625 0-0.0104-0.00017-0.0208-0.00017-0.0312 0-0.0104-0.00017-0.0208-0.00017-0.0312 0zm-39.75 15.4375c-0.49381 0.0753-0.87013 0.60215-0.78125 1.0937 0 0 0.26593 2.0002-0.125 4.25s-1.37689 4.5474-3.78125 5.5c-0.45861 0.17965-0.71219 0.76065-0.5321 1.21908 0.1801 0.45843 0.76134 0.71146 1.2196 0.53092 3.20814-1.2711 4.4903-4.3639 4.9375-6.9375s0.125-4.8125 0.125-4.8125c-0.0458-0.50352-0.56168-0.91314-1.0625-0.8437zm40.1875 16.8437c0.69545 0.5819 6.98536 5.9165 10.5 15.1875 3.70723 9.779 3.99131 23.3842-10.125 39.4375-11.215 7.1985-19.5023 9.2813-25.3438 9.2813-4.19807 0-7.13176-1.044-9.09375-2.0938-0.98099-0.5249-1.73757-1.0409-2.25-1.4375-0.49244-0.39573-1.08897-0.83095-1.5625-1.1562-0.25343-0.2836-0.51421-0.7205-0.6875-1.125-0.17329-0.4046-0.24362-0.7525-0.1875-0.9688 0.0561-0.2163 0.16966-0.4045 0.71875-0.625 1.30017-0.5248 3.98696-1.0671 6.28125-1.4375s4.21875-0.5937 4.21875-0.5937c0.49108 0.009 0.94557-0.4308 0.95374-0.92189 0.008-0.49109-0.43145-0.94527-0.92254-0.95311l-9.15625-1.4063c-0.14228-0.1569-0.80225-0.8462-1.0625-1.8125-0.14406-0.5349-0.16191-1.0541 0.0937-1.5937 0.2436-0.5141 0.80737-1.1074 1.90625-1.6875 5.45654-0.5689 9.28125-0.5938 9.28125-0.5938 0.4468-0.0102 0.85712-0.38308 0.90978-0.82688 0.0527-0.44381-0.259-0.9024-0.69103-1.01682l-10.6874-2.5938c-0.11684-0.1425-0.56963-0.688-0.71875-1.5-0.084-0.4571-0.0755-0.9213 0.1875-1.4375 0.24492-0.4807 0.84461-1.0301 1.78125-1.5937 4.93649 0.2628 12.2812-0.2813 12.2812-0.2813 0.43525-0.045 0.80944-0.43263 0.83904-0.8692s-0.28884-0.87117-0.71404-0.9745l-11.8438-2.625c-0.21785-0.3352-0.83074-1.321-0.90625-2.5313-0.0449-0.7201 0.0954-1.3897 0.65625-2.0937 0.5528-0.6941 1.59615-1.4125 3.4375-1.9688 3.95486 0.01 8.29019 0.1493 12.1562 0 3.93563-0.152 7.38957-0.5482 9.65625-1.9375 1.45161-0.8937 1.95732-2.6817 2.4375-4.8125s0.82776-4.7215 1.34375-7.2812c0.51599-2.5598 1.18016-5.1095 2.25-7.1563 0.97565-1.8666 2.29147-3.2086 4.0625-4zm-163.563 1.969c0.10232 0.069 0.25796 0.235 0.375 0.5312 0.46816 1.185 0.17244 4.1155 0.0312 4.7188-0.0383 0.39466-0.0521 0.52054 0 0.75 0.0509 0.1399 0.18909 0.3857 0.46875 0.5312 0.27966 0.1457 0.58504 0.1227 0.75 0.062 0.47887-0.10845 0.5935-0.58157 0.78125-0.875 0.25762-0.482 0.61378-1.2117 0.96875-2 0.35497-0.7882 0.70518-1.6092 0.96875-2.25 0.0948-0.39094 0.36829-0.69055 0.5-0.9375 0.29562-0.1601 0.68985-0.3115 1.03125-0.3437 0.3414-0.032 0.56661 0 0.8125 0.25 0.22689 0.2288 0.48273 0.8736 0.625 1.9062-0.75664 1.8604-1.55045 4.3483-1.71875 4.8438-0.012 0.0307-0.0225 0.0621-0.0312 0.094-0.001 0-0.0303 0.028-0.0312 0.031-0.002 0.01-0.0294 0.088-0.0312 0.094-0.13511 0.42985 0.0916 0.94266 0.50052 1.13197 0.40889 0.18932 0.94662 0.0305 1.18698-0.35067l0.0312-0.031v-0.031l3.65625-5.7188c0.0208-0.0207 0.0416-0.0413 0.0624-0.062 0.0903-0.081 0.54896-0.4672 0.71875-0.5 0.0934-0.018 0.0152-0.082 0.1875 0.125 0.17225 0.2067 0.46021 0.8021 0.65625 1.9688 0.0812 0.4872 0.12934 0.9021 0.125 1.2812l-2.71875 3.9063c-0.46969 0.62083 0.25022 1.67817 1 1.4687 0 0 0.88552-0.2316 1.75-0.9687 0.82211-0.7011 1.63208-1.9277 1.78125-3.75l0.90625-1.3125s0.0299-0.03 0.0312-0.031c0.0582-0.046 1.25896-0.9988 2.0625-1 0.41166-0.0007 0.72207 0.082 1.15625 0.8125 0.42252 0.7109 0.81588 2.1389 0.9375 4.4687-0.17245 1.0395-1.20142 2.8567-2.78125 5.2188-1.55289 2.3217-3.55652 5.2853-5.46875 8.9375-0.0222 0.042-0.0403 0.082-0.0625 0.125-0.003 0.01-0.0287 0-0.0312 0-0.00017 0.0103-0.00017 0.0207 0 0.031-0.0112 0.0203-0.0216 0.041-0.0312 0.062-0.0104-0.00017-0.0208-0.00017-0.0312 0-0.005 0.01 0.005 0.022 0 0.031-0.0239 0.04-0.0448 0.0819-0.0625 0.125-0.00017 0.0103-0.00017 0.0207 0 0.031-0.0255 0.05-0.0464 0.1024-0.0625 0.1562-0.65057 1.2922-1.31846 2.6458-1.9375 4.125-0.0804 0.1921-0.17017 0.4166-0.25 0.6563-0.0112 0.034-0.0204 0.059-0.0312 0.094-1.20274 2.9603-2.21652 6.31-2.96875 10.0625-0.31499 0.2524-3.12526 2.4336-6.8125 2.9375-1.95 0.2664-4.0449 0.064-6.15625-1.2188-2.09107-1.2704-4.22961-3.6579-6.09375-7.7812-0.11483-0.3725-0.23138-0.9106-0.28125-1.5938-0.21863-2.9513 0.36737-8.3217 1.875-13.75 1.50763-5.4282 3.94138-10.9389 7.28125-14.3125 1.90915-1.9395 3.25813-2.6987 3.875-2.8125 0.30545-0.0896 0.3722-0.00074 0.4999 0.0625zm56.9062 22.2185c-1.35154 0.042-3.02892 0.4125-5.1875 1.1875-0.0645 0.014-0.12741 0.0348-0.1875 0.062-1.37688 0.8259-2.5012 2.3218-3.84375 4.25s-2.86559 4.3184-4.78125 6.9688c-3.83132 5.3006-9.21267 11.6393-17.8438 17.2812-0.18827 0.11229-0.33488 0.29273-0.40625 0.5 0 0-1.59575 4.9576-0.25 10.125 0.67288 2.5837 2.10343 5.2618 4.84375 7.2813 2.74032 2.0194 6.72568 3.3564 12.4062 3.5312 0.0416 0.003 0.0834 0.003 0.125 0 1.61629-0.1348 3.80182-0.941 6.4375-2.25s5.66079-3.1255 8.6875-5.3125c3.66039-2.6449 7.29828-5.8458 10.2188-9.3437 0.0695 0.062 0.11454 0.1089 0.21875 0.2187 0.35729 0.3765 0.83686 1.0333 1.3125 2.1563 0.95128 2.2458 1.79955 6.3292 1.03125 13.5-0.0586 0.49154 0.33617 0.99196 0.82786 1.04931 0.4917 0.0574 0.99108-0.33877 1.04714-0.83061 0.7917-7.3892-0.0413-11.8364-1.15625-14.4687-0.55749-1.3162-1.20369-2.176-1.71875-2.7188-0.12876-0.1357-0.25711-0.2451-0.375-0.3437 1.39717-1.8509 2.56186-3.7742 3.40625-5.75 1.31948-3.1082 1.76443-5.121 1.4375-6.6563-0.16346-0.7676-0.57915-1.4308-1.15625-1.8125s-1.26353-0.4777-1.90625-0.4687c-0.79238 0.011-1.54045 0.3412-2.3125 0.5937 0.34295-0.3532 0.71854-0.7513 1-1.0312 0.38119-0.38014 0.72325-0.69817 1.09365-1.0293 0.19092-0.36539 0.20332-0.81212 0.2812-1.1562 0.0603-0.5661 0.0829-1.3074-0.15625-2.0938-0.23914-0.7864-0.82878-1.6269-1.8125-2.0312-0.92794-0.3814-2.12503-0.3449-3.625 0.062l0.5625-0.8125c0.0112-0.0203 0.0216-0.041 0.0312-0.062 0 0 0.77525-1.1263 0.5-2.5-0.13763-0.6869-0.72134-1.4155-1.59375-1.6875-0.77906-0.243-1.83039-0.1294-3.125 0.125 0.0112-0.0203 0.0216-0.041 0.0312-0.062 0 0 0.98912-2.2099 0.15625-4.25-0.41643-1.0201-1.436-1.927-2.96875-2.1563-0.38319-0.057-0.79949-0.076-1.25-0.062zm0.0625 1.9063c0.34719-0.01 0.65507-0.01 0.90625 0.031 1.02908 0.154 1.29784 0.5048 1.5 1 0.39869 0.9767-0.14082 2.7622-0.15625 2.8125-0.00022 0.0008 0 0.031 0 0.031l-1.03125 1.625c-1.91283 0.9607-2.86352 2.3539-3.25 3.5312-0.40209 1.2249-0.25 2.2813-0.25 2.2813 0.12468 0.74438 1.3174 0.98289 1.71875 0.3437l3.03125-4.6874c0.42601-0.2014 0.91352-0.3845 1.53125-0.5312 1.37006-0.3118 2.18479-0.2643 2.53125-0.1563s0.28216 0.1298 0.3125 0.2813c0.0607 0.3028-0.28125 1.2187-0.28125 1.2187l-4.46875 6.4375c-0.10173 0.0511-0.13397 0.15199-0.2186 0.248l-0.0625 0.094 0.875 0.4063 0.15625 0.9062 0.28125-0.094c0.10535-0.0738 0.17968-0.13935 0.2811-0.218 0.43798-0.3729 2.94152-2.507 4.65625-4.1875 1.21489-0.3202 2.04438-0.3178 2.4375-0.1563 0.42324 0.174 0.59258 0.4289 0.71875 0.8438s0.13714 0.9684 0.0937 1.375c-0.029 0.45934-0.57199 0.78788-0.84365 1.062-0.57379 0.5708-1.30602 1.3265-2 2.0625s-1.34808 1.4486-1.75 1.9375c-0.10048 0.1222-0.17445 0.2067-0.25 0.3125-0.0756 0.1058-0.12741 0.1484-0.21875 0.4375-0.0228 0.072-0.0692 0.1704-0.0625 0.3437 0.007 0.1734 0.10826 0.4818 0.34375 0.6875 0.23549 0.2058 0.50389 0.2542 0.65625 0.25 0.15236 0 0.21503-0.04 0.28125-0.062 0.2649-0.091 0.344-0.161 0.46875-0.25 0.59903-0.4339 3.63807-2.0716 5.21875-2.0937 0.39517-0.01 0.65416 0.052 0.8125 0.1562 0.15834 0.1048 0.29126 0.2318 0.375 0.625 0.16748 0.7866-0.0589 2.6095-1.3125 5.5625-2.46294 5.7634-8.29841 11.4635-14.1875 15.7188-2.94454 2.1277-5.9088 3.9004-8.4375 5.1562-2.48788 1.2356-4.56562 1.9543-5.65625 2.0625-5.41006-0.1664-8.97856-1.4445-11.3438-3.1875-2.36519-1.7429-3.5671-3.9565-4.15625-6.2187-1.12723-4.3283 0.10874-8.4736 0.21875-8.8438 8.64068-5.7331 14.152-12.1763 18-17.5 1.95325-2.7023 3.47548-5.1245 4.78125-7 1.2941-1.8586 2.38904-3.1283 3.25-3.6562 0.008-0.01 0.0236-0.027 0.0312-0.031 1.95661-0.6873 3.42718-0.941 4.46875-0.9688zm-69.7812 12.9687c1.42622 2.1287 2.98867 3.6289 4.59375 4.625-1.27186-0.1536-2.40876-0.4001-3.34375-0.7812-0.48795-1.2691-0.90174-2.5542-1.25-3.8438zm-29.0625 8.9375c11.1672 18.6136 21.837 27.3296 30.5 31.1875 8.31753 3.704 14.7296 2.9055 17.6875 2.25 9.93729 7.8658 22.094 10.5062 34.6875 10.0313 12.7487-0.4808 25.9775-4.1321 37.9375-8.75 23.383-9.0287 41.4866-21.5226 42.3125-22.0938 5.02796 4.1936 11.272 5.6283 17.3438 5.5938 11.9058-0.035 22.8852-5.1904 23.4062-5.4375 9.5792 0.9374 15.9264 11.6509 16.0938 11.9375 0.12307 0.4767 0.23561 0.9622 0.3125 1.4375 0.69875 3.9037 0.14676 8.2552-1.1875 12.7187-0.00068 0.0207-0.00068 0.0413 0 0.062-0.0296 0.07-0.0506 0.14369-0.0625 0.2188-1.20715 3.868-2.97637 7.7865-5 11.5312-0.0144 0.0232-0.086 0.10745-0.1249 0.156-1.31054 2.4098-2.74609 4.76-4.1875 6.9687-0.0703 0.12142-0.33944 0.543-0.46865 0.7497-5.39595 8.1439-10.4496 13.7388-11 14.3438-101.21-30.3782-195.755-3.8126-198.812-2.9375-0.7765-4.08011-2.87074-5.23304-4.31245-7.4375-1.48358-2.2767-3.26653-5.1839-5.0625-8.1875-3.59193-6.0074-7.2665-12.4625-8.75-15.3125-2.51099-4.8236-3.76866-14.878-4-22.0313-0.0106-0.32366-0.022-0.66237-0.0312-0.9372 1.80659-5.8695 6.81161-9.7685 11.8125-12.2813 4.68855-2.3559 9.1454-3.4166 10.9062-3.7812zm-31.5 7.3125c0.23203 0 0.45429 0.033 0.6875 0.062 0.62188 0.078 1.2427 0.2442 1.84375 0.5 2.4042 1.0231 4.34375 3.4223 4.34375 6.625 0 0.8208 0.0271 1.6733 0.0625 2.5625 0.23614 7.3017 1.35226 17.306 4.21875 22.8125 1.53026 2.9399 5.17349 9.4036 8.78125 15.4375 1.80388 3.0169 3.58815 5.9083 5.09375 8.2188 1.5056 2.3104 2.62699 3.9575 3.5 4.75 0.0772 0.072 0.5625 1.1662 0.5625 2.6875 0 2.9603-1.22733 7.402-4.65625 10.25-3.40826 2.8307-9.07232 4.2754-18.4688 1.2812-10.1079-7.9936-19.1926-20.3974-25.4688-31.4062-3.15195-5.5289-5.58847-10.7089-7.125-14.75-0.76827-2.0206-1.31002-3.7583-1.59375-5.0938-0.26254-1.2357-0.21913-2.0381-0.15625-2.3125 0.57096-0.4555 1.12809-0.8326 1.53125-0.9687 0.47836-0.1616 0.79362-0.1758 1.34375 0.094 1.10026 0.5392 2.86818 2.4997 5.40625 6.625 0.0476 0.077 0.15625 0.1875 0.15625 0.1875 0.31208 0.29396 0.83495 0.33041 1.18481 0.0826 0.34985-0.24782 0.48895-0.75316 0.31519-1.1451-0.002-0.01 0.003-0.024 0-0.031-0.0198-0.0216-0.0407-0.0423-0.0625-0.062-0.006-0.01 0.006-0.022 0-0.031-0.006-0.01-0.0211-0.018-0.0312-0.031-0.18365-0.3693-0.96133-2.0055-1.65625-4.0625-0.70596-2.0898-1.24598-4.587-0.96875-6.375 0.31486-1.9842 1.07372-2.6025 1.71875-2.7188s1.58271 0.2883 2.375 1.4688c1.66103 2.5177 4.3877 6.5574 4.96875 7.4375 0.0704 0.13992 0.16461 0.24645 0.2498 0.374 0.59599 0.53202 1.73409-0.16477 1.53125-0.9375-0.006-0.10474-0.0619-0.18457-0.0936-0.279-0.32384-0.5856-2.06643-3.6942-3.3125-6.9688-0.62303-1.6373-1.09537-3.3311-1.25-4.6875s0.0441-2.2635 0.46875-2.6562c0.68063-0.6317 1.27478-0.8469 1.875-0.8125 0.60022 0.034 1.31776 0.3575 2.15625 1.1562 1.67697 1.5973 3.64519 5.0298 5.59375 10.4063 0.0218 0.0765 0.0534 0.15017 0.0937 0.2187 0 0 0.35111 0.5994 1.125 0.8438 0.38695 0.1221 0.91913 0.1104 1.375-0.125 0.45587-0.2355 0.81131-0.6326 1.15625-1.1875 0.20434-0.31648 0.19136-0.75856-0.0312-1.0625 0 0-1.78319-2.4322-3.0625-5.4688-0.63966-1.5183-1.15076-3.157-1.25-4.6875-0.0992-1.5305 0.1922-2.9136 1.0625-4.0312 1.19879-1.528 2.78203-2.2026 4.40625-2.1875zm260.156 4.4688c0.24821-0.017 0.50227-0.01 0.75 0 1.8017 0.071 3.56953 0.8671 4.875 2.5312 2.99969 5.20358-2.43939 15.3514-2.43939 15.3514-0.0141 1.09378 0.95712 0.36353 0.95712 0.36353 4.68067-10.4643 8.20477-14.0711 11.451-11.0586 3.08375 2.8512-3.26 14.2712-3.90625 15.4375 0.43125-0.6463 3.34-4.9975 5.0625-7.5625 1.8475-2.78 5.08375-2.7875 5.78125 1.625 0.66375 4.16-2.37875 10.3812-2.71875 11.0625 5.07375-8.2838 6.94375-8.2963 9.9375-5.75 1.8475 4.6437-14.1725 38.7412-34.8125 54.9687-21.292 6.8884-25.3904-8.5896-24.375-14.125 0.0106-0.0101 0.021-0.0204 0.0312-0.031 0 0 5.8106-6.2718 11.5938-15 0.12425-0.28413 0.3029-0.48456 0.4687-0.7498 1.45635-2.2316 2.91159-4.6034 4.25-7.0625 0.0197-0.0675 0.0648-0.10797 0.0937-0.156 0.98661-1.8235 1.91307-3.6959 2.75-5.5937 0.0555-0.1062 0.13477-0.2409 0.1875-0.3438 0.47274-0.9147 0.87469-1.9707 1.21875-3.125 0.3831-1.0267 0.74752-2.0677 1.0625-3.0937 0.00068-0.0207 0.00068-0.0413 0-0.062 0.0132-0.0409 0.0237-0.0827 0.0312-0.125 0.002-0.0313 0.002-0.0627 0-0.094 1.34294-4.5708 1.97795-9.1024 1.21875-13.3438-0.40697-1.32656-0.51063-1.82834-0.87495-2.625 0.0196-1.1962 0.0312-2.3283 0.0312-3.3437 0-4.6342 3.65181-7.8405 7.375-8.0938z"/>
 </g>
</svg>
