<?xml version="1.0" standalone="no"?><!DOCTYPE svg PUBLIC "-//W3C//DTD SVG 1.1//EN" "http://www.w3.org/Graphics/SVG/1.1/DTD/svg11.dtd"><svg class="icon" height="512" viewBox="0 0 1024 1024" version="1.1" xmlns="http://www.w3.org/2000/svg"><path d="M511.99488 1019.4432c-17.52576 0-34.81088-4.61824-49.99168-13.36832l-352.88064-203.70432c-30.82752-17.8176-49.99168-51.00032-49.99168-86.59456L59.13088 308.28032c0-35.60448 19.15392-68.78208 49.9968-86.57408L462.01344 17.95584C477.16352 9.18528 494.44352 4.5568 512 4.5568c17.52064 0 34.80576 4.6336 49.99168 13.39904L914.87744 221.696c30.82752 17.81248 49.99168 50.99008 49.99168 86.58432l0 407.4752c0 35.59424-19.15392 68.78208-50.00192 86.6048l-352.87552 203.71456C546.80064 1014.81984 529.51552 1019.4432 511.99488 1019.4432zM144.09216 724.44416l325.43232 187.86816 0-375.78752L144.09216 348.6464 144.09216 724.44416zM554.4704 536.55552l0 375.74656 325.44256-187.84256L879.91296 348.68224 554.4704 536.55552zM186.56256 275.08736l325.4528 187.87328 325.40672-187.87328-325.43744-187.904L186.56256 275.08736z" /></svg>