<?xml version="1.0" standalone="no"?>
<!DOCTYPE svg PUBLIC "-//W3C//DTD SVG 20010904//EN"
 "http://www.w3.org/TR/2001/REC-SVG-20010904/DTD/svg10.dtd">
<svg version="1.0" xmlns="http://www.w3.org/2000/svg"
 width="1933.000000pt" height="321.000000pt" viewBox="0 0 1933.000000 321.000000"
 preserveAspectRatio="xMidYMid meet">
<metadata>
Created by potrace 1.15, written by Peter Selinger 2001-2017
</metadata>
<g transform="translate(0.000000,321.000000) scale(0.100000,-0.100000)"
fill="#000000" stroke="none">
<path d="M4397 2982 c-80 -376 -205 -964 -253 -1187 -25 -115 -49 -230 -54
-255 -18 -92 -321 -1506 -326 -1523 -5 -16 8 -17 212 -15 l217 3 83 390 c180
842 275 1290 324 1520 62 290 129 605 209 983 34 155 61 289 61 297 0 13 -30
15 -212 15 l-213 0 -48 -228z"/>
<path d="M9525 3198 c-2 -7 -31 -141 -64 -298 -33 -157 -97 -456 -141 -665
-45 -209 -96 -452 -115 -540 -88 -414 -139 -654 -199 -935 -106 -499 -156
-736 -156 -748 0 -9 59 -12 213 -12 l212 0 129 608 c71 334 169 794 217 1022
49 228 100 467 113 530 14 63 48 223 76 355 108 508 141 661 146 678 5 16 -10
17 -211 17 -164 0 -217 -3 -220 -12z"/>
<path d="M15115 3198 c-3 -7 -36 -161 -74 -343 -39 -181 -84 -395 -101 -475
-28 -131 -62 -288 -165 -775 -19 -88 -77 -360 -129 -605 -52 -245 -111 -524
-132 -620 -20 -96 -47 -221 -59 -278 l-22 -102 216 0 216 0 23 113 c13 61 73
342 132 622 123 577 437 2050 480 2255 16 74 33 154 38 178 l10 42 -214 0
c-163 0 -216 -3 -219 -12z"/>
<path d="M891 2814 c-304 -53 -537 -264 -656 -594 -29 -82 -57 -194 -105 -425
-17 -82 -52 -247 -77 -365 -44 -204 -46 -223 -47 -375 0 -148 2 -166 27 -241
66 -198 210 -330 427 -391 99 -27 384 -24 495 5 223 60 369 182 482 399 67
129 153 380 153 446 0 13 -29 16 -202 16 -112 1 -208 -2 -214 -6 -5 -5 -20
-46 -33 -93 -48 -181 -132 -309 -236 -360 -44 -22 -63 -25 -160 -25 -94 0
-117 3 -160 23 -106 49 -146 113 -152 247 -5 95 -11 62 153 835 44 209 66 276
115 349 44 66 86 102 157 134 64 28 212 30 291 3 71 -24 133 -86 155 -153 19
-56 23 -148 12 -230 l-8 -53 215 0 216 0 8 48 c13 83 8 281 -11 352 -65 251
-240 408 -506 454 -102 18 -240 18 -339 0z"/>
<path d="M2680 2810 c-271 -58 -458 -207 -589 -468 -64 -128 -109 -306 -252
-1002 -74 -357 -29 -588 147 -763 69 -68 181 -129 291 -159 115 -31 343 -31
467 0 289 72 483 273 591 613 15 46 47 179 71 294 25 116 68 316 96 445 72
336 74 498 9 671 -49 129 -167 255 -297 315 -143 67 -370 90 -534 54z m271
-415 c64 -22 113 -67 146 -133 25 -51 28 -67 27 -157 0 -86 -13 -156 -87 -505
-48 -223 -94 -432 -103 -465 -27 -100 -73 -182 -136 -240 -75 -70 -133 -90
-253 -89 -150 1 -235 43 -285 140 -37 73 -35 202 8 394 17 80 61 283 97 452
66 314 84 375 128 451 47 80 141 148 230 167 56 12 171 4 228 -15z"/>
<path d="M5974 2816 c-352 -67 -594 -321 -698 -733 -30 -117 -159 -729 -182
-863 -19 -113 -14 -282 11 -375 58 -209 213 -361 430 -420 33 -9 115 -19 183
-22 436 -20 702 151 861 554 47 117 103 321 91 328 -4 3 -101 4 -215 2 l-207
-2 -18 -72 c-57 -224 -150 -355 -282 -399 -71 -23 -214 -16 -284 15 -147 64
-181 191 -125 466 49 243 160 765 172 809 35 131 138 257 239 292 72 25 206
26 275 1 63 -21 120 -67 145 -117 29 -57 42 -156 30 -237 -5 -37 -10 -71 -10
-75 0 -5 96 -8 214 -8 l215 0 8 48 c14 84 8 291 -11 362 -32 117 -73 189 -155
271 -86 85 -160 127 -288 160 -102 26 -302 34 -399 15z"/>
<path d="M7809 2821 c-283 -40 -520 -222 -643 -494 -57 -125 -84 -223 -166
-612 -102 -476 -110 -521 -113 -625 -10 -285 102 -498 321 -613 231 -122 600
-111 829 24 86 51 220 189 272 281 56 100 97 201 127 313 25 95 152 687 185
864 80 432 -98 758 -461 846 -76 18 -270 27 -351 16z m222 -426 c109 -38 169
-130 176 -270 4 -68 -3 -115 -47 -320 -28 -132 -67 -316 -86 -410 -70 -334
-98 -406 -187 -495 -69 -70 -135 -94 -257 -94 -153 -1 -237 40 -286 141 -46
93 -41 179 30 508 32 149 71 333 87 410 16 77 37 169 46 205 45 183 156 310
296 340 57 12 172 5 228 -15z"/>
<path d="M13388 2819 c-86 -12 -165 -37 -243 -76 -91 -45 -146 -87 -221 -165
-146 -153 -220 -316 -289 -638 -166 -772 -158 -724 -159 -875 -1 -160 13 -225
71 -343 108 -219 374 -347 682 -329 138 8 232 32 349 88 89 43 115 62 185 132
148 150 226 317 296 637 159 725 164 756 164 905 1 195 -31 304 -124 428 -114
152 -299 236 -534 242 -66 1 -146 -1 -177 -6z m222 -420 c94 -33 149 -95 176
-199 25 -100 29 -78 -151 -925 -14 -66 -33 -142 -42 -170 -43 -134 -115 -225
-216 -271 -54 -25 -74 -28 -157 -29 -122 0 -187 21 -246 81 -92 91 -94 195
-14 564 28 129 69 321 91 425 43 208 59 265 96 338 49 97 147 176 245 197 53
11 171 5 218 -11z"/>
<path d="M10529 2783 c-24 -4 -27 -11 -63 -181 -20 -97 -86 -406 -146 -687
-60 -280 -132 -618 -160 -750 -28 -132 -73 -344 -100 -471 -28 -128 -50 -241
-50 -251 0 -19 9 -20 212 -19 l212 1 62 290 c33 160 98 463 143 675 74 352 98
455 100 440 2 -14 143 -698 168 -820 l29 -135 146 -2 146 -2 303 484 c167 266
305 482 307 480 2 -2 -15 -90 -38 -197 -23 -106 -52 -242 -65 -303 -13 -60
-62 -289 -109 -508 -47 -218 -86 -399 -86 -401 0 -6 387 -7 412 -1 21 5 26 16
37 68 16 85 138 657 156 737 9 36 42 193 75 350 89 419 175 823 215 1009 19
90 35 171 35 181 0 17 -15 18 -219 18 l-220 0 -24 -36 c-13 -21 -132 -212
-264 -427 -132 -214 -293 -475 -358 -580 -65 -104 -134 -216 -153 -248 -34
-56 -52 -77 -52 -59 0 10 -19 114 -89 482 -28 146 -75 397 -106 559 -30 161
-58 297 -60 301 -5 9 -348 11 -396 3z"/>
<path d="M16109 2783 c-17 -4 -16 -2 -134 -558 -36 -170 -72 -339 -80 -375 -8
-36 -37 -173 -65 -305 -28 -132 -57 -269 -65 -305 -8 -36 -40 -184 -71 -330
-31 -146 -66 -313 -79 -373 -13 -59 -20 -109 -16 -111 3 -2 96 -4 207 -5 154
-2 203 1 211 11 6 7 39 147 73 310 l64 297 130 3 c72 2 134 1 138 -2 4 -3 49
-138 100 -300 51 -162 97 -301 101 -308 12 -18 467 -17 467 2 0 7 -54 169
-120 360 -66 191 -120 348 -120 350 0 1 19 8 43 15 23 7 74 29 112 49 83 43
222 177 273 264 105 179 183 449 188 658 5 179 -28 296 -119 415 -103 135
-260 212 -487 235 -88 10 -716 12 -751 3z m751 -429 c69 -20 139 -87 159 -154
22 -72 15 -191 -18 -321 -37 -147 -72 -219 -141 -289 -104 -106 -214 -140
-461 -140 l-156 0 18 88 c15 74 65 303 160 742 l21 95 181 -3 c129 -1 198 -7
237 -18z"/>
<path d="M18048 2783 c-17 -3 -28 -12 -31 -26 -3 -12 -22 -96 -41 -187 -19
-91 -78 -365 -130 -610 -115 -540 -181 -849 -247 -1160 -27 -129 -56 -264 -64
-300 -11 -49 -11 -66 -2 -72 6 -4 299 -7 649 -8 l638 0 9 22 c13 32 71 308 74
352 l2 36 -427 0 c-235 0 -429 4 -432 8 -2 4 6 54 19 112 12 58 40 187 61 288
l38 182 328 0 c195 0 328 4 328 9 0 5 16 85 35 178 19 92 35 171 35 176 0 4
-147 7 -326 7 -306 0 -325 1 -320 18 3 9 31 132 61 272 31 140 58 263 61 272
5 17 37 18 442 20 l437 3 42 195 c23 107 42 200 43 207 0 9 -152 11 -627 11
-346 0 -640 -3 -655 -5z"/>
</g>
</svg>
