<?xml version="1.0" encoding="UTF-8"?>
<svg width="41px" height="33px" viewBox="0 0 41 33" version="1.1" xmlns="http://www.w3.org/2000/svg" xmlns:xlink="http://www.w3.org/1999/xlink">
    <!-- Generator: sketchtool 54.1 (76490) - https://sketchapp.com -->
    <title>AD3D9815-D460-458E-AF3F-081AA42763A5</title>
    <desc>Created with sketchtool.</desc>
    <g id="Modules" stroke="none" stroke-width="1" fill="none" fill-rule="evenodd">
        <g id="Icons" transform="translate(-210.000000, -563.000000)" fill="#FFFFFF" fill-rule="nonzero">
            <g id="twitter" transform="translate(210.000000, 563.000000)">
                <g id="Group" transform="translate(0.300000, 0.000000)">
                    <path d="M39.3638266,3.83892336 C38.4750892,4.22978958 37.5525109,4.53814927 36.6058441,4.76139085 C37.6489622,3.77827671 38.4332513,2.54861024 38.8757183,1.17608076 L38.8757183,1.17608076 C39.0020121,0.784247288 38.5729059,0.445419186 38.2161626,0.655215975 L38.2161626,0.655215975 C36.8991967,1.4299842 35.4806107,2.01120546 33.9997067,2.3829201 C33.913788,2.4044898 33.8251385,2.41541974 33.7361965,2.41541974 C33.4664448,2.41541974 33.2042024,2.31608304 32.9979388,2.13578742 C31.4223389,0.758518406 29.395885,0 27.2919969,0 C26.3816091,0 25.4624441,0.140735052 24.5599558,0.418336152 C21.7637439,1.27851266 19.6062175,3.56615852 18.9293025,6.38859757 C18.6753497,7.44725403 18.6065951,8.50687774 18.7247944,9.53796754 C18.7383502,9.65645582 18.6818838,9.73915579 18.6470677,9.77794257 C18.58592,9.84594033 18.4992211,9.88492055 18.4092063,9.88492055 C18.3991613,9.88492055 18.3888238,9.88443693 18.3785837,9.88346968 C12.2577741,9.31946549 6.73829829,6.39478798 2.83684536,1.6482928 L2.83684536,1.6482928 C2.63789613,1.40618982 2.25638172,1.43588443 2.09780748,1.7056508 L2.09780748,1.7056508 C1.33380342,3.00563644 0.930053515,4.49249501 0.930053515,6.00546937 C0.930053515,8.32416399 1.86930844,10.5092812 3.50078965,12.1022472 C2.81470738,11.9409097 2.15066556,11.6868128 1.53382542,11.3470175 L1.53382542,11.3470175 C1.23540157,11.1825848 0.868223215,11.3939292 0.864029677,11.7324671 L0.864029677,11.7324671 C0.821314107,15.1770421 2.85469227,18.2420678 5.90076104,19.6222386 C5.83941836,19.6236894 5.77807568,19.6243665 5.71663547,19.6243665 C5.23379349,19.6243665 4.74490501,19.5781319 4.26372094,19.4869201 L4.26372094,19.4869201 C3.92765278,19.423275 3.64532042,19.7394694 3.74967124,20.0626281 L3.74967124,20.0626281 C4.7383709,23.1240749 7.39609856,25.380672 10.5765556,25.8930249 C7.9369674,27.6504237 4.86310426,28.5774373 1.66382509,28.5774373 L0.666445784,28.5768569 C0.359147242,28.5768569 0.0992454286,28.7755303 0.02093355,29.0707354 C-0.0562080389,29.3614911 0.0858846224,29.6682065 0.347931967,29.8193878 C3.95300906,31.9002354 8.06511411,33 12.2414876,33 C15.8971797,33 19.3167659,32.2804618 22.4053552,30.8615043 C25.2367733,29.5606481 27.7388525,27.7011076 29.8420579,25.3345341 C31.8013177,23.1299751 33.3334218,20.5850404 34.3956547,17.7705328 C35.4082478,15.0876681 35.9434602,12.2249914 35.9434602,9.49192638 L35.9434602,9.36173437 C35.9433627,8.92289249 36.1434822,8.50997295 36.4926186,8.22888974 C37.8174839,7.16201165 38.9711944,5.90613267 39.9215671,4.49617056 L39.9215671,4.49617056 C40.1724967,4.12387557 39.7767438,3.65727358 39.3638266,3.83892336 L39.3638266,3.83892336 Z" id="Path"></path>
                </g>
            </g>
        </g>
    </g>
</svg>