<?xml version="1.0" encoding="UTF-8"?>
<svg width="58px" height="40px" viewBox="0 0 58 40" version="1.1" xmlns="http://www.w3.org/2000/svg" xmlns:xlink="http://www.w3.org/1999/xlink">
    <!-- Generator: sketchtool 54.1 (76490) - https://sketchapp.com -->
    <title>B5EF9B57-AB91-4CF9-B0FF-A0C6D8A982AF</title>
    <desc>Created with sketchtool.</desc>
    <g id="Modules" stroke="none" stroke-width="1" fill="none" fill-rule="evenodd">
        <g id="Icons" transform="translate(-543.000000, -556.000000)" fill="#FFFFFF">
            <path d="M566.068182,584.441613 L566.068182,567.558387 L581.227273,576.000323 L566.068182,584.441613 Z M599.787932,562.246129 C599.120932,559.787419 597.155523,557.85129 594.660205,557.194194 C590.137193,556 572,556 572,556 C572,556 553.862807,556 549.339795,557.194194 C546.844477,557.85129 544.879068,559.787419 544.212068,562.246129 C543,566.702258 543,576 543,576 C543,576 543,585.297419 544.212068,589.753871 C544.879068,592.212581 546.844477,594.14871 549.339795,594.806129 C553.862807,596 572,596 572,596 C572,596 590.137193,596 594.660205,594.806129 C597.155523,594.14871 599.120932,592.212581 599.787932,589.753871 C601,585.297419 601,576 601,576 C601,576 601,566.702258 599.787932,562.246129 L599.787932,562.246129 Z" id="youtube"></path>
        </g>
    </g>
</svg>