<?xml version="1.0" encoding="UTF-8"?>
<svg width="14px" height="14px" viewBox="0 0 14 14" version="1.1" xmlns="http://www.w3.org/2000/svg" xmlns:xlink="http://www.w3.org/1999/xlink">
    <!-- Generator: sketchtool 54.1 (76490) - https://sketchapp.com -->
    <title>8E18F77A-E154-44FE-B9E3-F5DBC5723E7E</title>
    <desc>Created with sketchtool.</desc>
    <g id="Modules" stroke="none" stroke-width="1" fill="none" fill-rule="evenodd">
        <g id="Icons" transform="translate(-895.000000, -310.000000)" fill="#62BB46" fill-rule="nonzero">
            <g id="Icon-/-menu-/-dark-blue-Copy-4" transform="translate(886.000000, 301.000000)">
                <g id="Group" transform="translate(8.000000, 8.000000)">
                    <path d="M11,7 L16.7318444,7 C16.9106148,7.27752633 17,7.61085967 17,8 C17,8.38914033 16.9106148,8.72247367 16.7318444,9 L11,9 L-0.731844428,9 C-0.910614809,8.72247367 -1,8.38914033 -1,8 C-1,7.61085967 -0.910614809,7.27752633 -0.731844428,7 L11,7 Z" id="Combined-Shape" transform="translate(8.000000, 8.000000) rotate(-45.000000) translate(-8.000000, -8.000000) "></path>
                    <path d="M11,7 L16.7318444,7 C16.9106148,7.27752633 17,7.61085967 17,8 C17,8.38914033 16.9106148,8.72247367 16.7318444,9 L11,9 L-0.731844428,9 C-0.910614809,8.72247367 -1,8.38914033 -1,8 C-1,7.61085967 -0.910614809,7.27752633 -0.731844428,7 L11,7 Z" id="Combined-Shape" transform="translate(8.000000, 8.000000) rotate(-315.000000) translate(-8.000000, -8.000000) "></path>
                </g>
            </g>
        </g>
    </g>
</svg>