<?xml version="1.0" encoding="UTF-8"?>
<svg width="21px" height="18px" viewBox="0 0 21 18" version="1.1" xmlns="http://www.w3.org/2000/svg" xmlns:xlink="http://www.w3.org/1999/xlink">
    <!-- Generator: sketchtool 55.1 (78136) - https://sketchapp.com -->
    <title>1DFC9F1C-4EC6-40AB-8A24-07E3F877831E</title>
    <desc>Created with sketchtool.</desc>
    <g id="Modules" stroke="none" stroke-width="1" fill="none" fill-rule="evenodd">
        <g id="Icons" transform="translate(-1284.000000, -351.000000)" fill="#11284E" fill-rule="nonzero">
            <g id="Icon-/-arrow-right" transform="translate(1278.000000, 344.000000)">
                <g id="Group" transform="translate(16.500000, 16.000000) scale(-1, 1) translate(-16.500000, -16.000000) translate(6.000000, 7.000000)">
                    <path d="M3.82842712,10 L9.70988031,15.8814532 C9.64004931,16.2041037 9.46755192,16.5030108 9.19238816,16.7781746 C8.91722439,17.0533384 8.61831725,17.2258357 8.29566675,17.2956668 L1.41421356,10.4142136 L4.82724971e-13,9 L8.29566675,0.704333249 C8.61831725,0.774164252 8.91722439,0.946661638 9.19238816,1.22182541 C9.46755192,1.49698918 9.64004931,1.79589631 9.70988031,2.11854681 L3.82842712,8 L14.4852814,8 L20.2171258,8 C20.3958962,8.27752633 20.4852814,8.61085967 20.4852814,9 C20.4852814,9.38914033 20.3958962,9.72247367 20.2171258,10 L14.4852814,10 L3.82842712,10 Z" id="Combined-Shape"></path>
                </g>
            </g>
        </g>
    </g>
</svg>
