<?xml version="1.0" encoding="UTF-8"?>
<svg width="18px" height="14px" viewBox="0 0 18 14" version="1.1" xmlns="http://www.w3.org/2000/svg" xmlns:xlink="http://www.w3.org/1999/xlink">
    <!-- Generator: sketchtool 54.1 (76490) - https://sketchapp.com -->
    <title>4E08525D-4C13-41E4-8F13-D825D2242FE9</title>
    <desc>Created with sketchtool.</desc>
    <g id="Modules" stroke="none" stroke-width="1" fill="none" fill-rule="evenodd">
        <g id="Icons" transform="translate(-328.000000, -207.000000)" fill="#11284E" fill-rule="nonzero">
            <g id="Icon-/-menu-/-dark-blue" transform="translate(321.000000, 198.000000)">
                <g id="Group" transform="translate(7.000000, 9.000000)">
                    <path d="M12,0 L17.7318444,0 C17.9106148,0.277526333 18,0.610859667 18,1 C18,1.38914033 17.9106148,1.72247367 17.7318444,2 L12,2 L0.268155572,2 C0.0893851906,1.72247367 -6.96245952e-15,1.38914033 -0,1 C-7.10542736e-15,0.610859667 0.0893851906,0.277526333 0.268155572,0 L12,0 Z" id="Combined-Shape"></path>
                    <path d="M12,6 L17.7318444,6 C17.9106148,6.27752633 18,6.61085967 18,7 C18,7.38914033 17.9106148,7.72247367 17.7318444,8 L12,8 L0.268155572,8 C0.0893851906,7.72247367 -6.96245952e-15,7.38914033 0,7 C-7.10542736e-15,6.61085967 0.0893851906,6.27752633 0.268155572,6 L12,6 Z" id="Combined-Shape"></path>
                    <path d="M12,12 L17.7318444,12 C17.9106148,12.2775263 18,12.6108597 18,13 C18,13.3891403 17.9106148,13.7224737 17.7318444,14 L12,14 L0.268155572,14 C0.0893851906,13.7224737 -6.96245952e-15,13.3891403 0,13 C-7.10542736e-15,12.6108597 0.0893851906,12.2775263 0.268155572,12 L12,12 Z" id="Combined-Shape"></path>
                </g>
            </g>
        </g>
    </g>
</svg>