<?xml version="1.0" encoding="UTF-8"?>
<svg width="28px" height="30px" viewBox="0 0 28 30" version="1.1" xmlns="http://www.w3.org/2000/svg" xmlns:xlink="http://www.w3.org/1999/xlink">
    <!-- Generator: sketchtool 54.1 (76490) - https://sketchapp.com -->
    <title>79BFFC48-6C9B-47D3-A493-4378F82A8C1C</title>
    <desc>Created with sketchtool.</desc>
    <g id="Modules" stroke="none" stroke-width="1" fill="none" fill-rule="evenodd">
        <g id="Floating-Button" transform="translate(-588.000000, -302.000000)" stroke="#62BB46" stroke-width="2">
            <g id="AD19_FloatingButton_1" transform="translate(571.000000, 286.000000)">
                <g id="icon-/-S-/-chat" transform="translate(18.000000, 17.000000)">
                    <path d="M13.156783,5.02864128e-07 C7.99271417,-0.00146385264 3.35964898,3.19537529 1.49750033,8.04496636 C-0.364648324,12.8945574 0.927721598,18.3978862 4.74979781,21.8943001 L4.6103518,27 L9.28715634,24.5511 C13.982065,26.0901749 19.136856,24.7023114 22.4421627,21.0092779 C25.7474695,17.3162443 26.5837787,12.0102256 24.5764207,7.46833886 C22.5690626,2.92645215 18.094276,-1.72361074e-05 13.156783,5.02864128e-07 L13.156783,5.02864128e-07 L13.156783,5.02864128e-07 Z" id="Path"></path>
                    <path d="M7.69392123,8.30224609 L18.6440518,8.30224609" id="Line-4" stroke-linecap="round"></path>
                    <path d="M7.69363318,12.3022461 L15.5814836,12.3022461" id="Line-4-Copy" stroke-linecap="round"></path>
                    <path d="M7.69525709,16.3022461 L18.6069603,16.3022461" id="Line-4-Copy-2" stroke-linecap="round"></path>
                </g>
            </g>
        </g>
    </g>
</svg>