<?xml version="1.0" encoding="UTF-8"?>
<svg width="21px" height="24px" viewBox="0 0 21 24" version="1.1" xmlns="http://www.w3.org/2000/svg" xmlns:xlink="http://www.w3.org/1999/xlink">
    <!-- Generator: sketchtool 54.1 (76490) - https://sketchapp.com -->
    <title>F02CB58F-D843-4F7F-B316-BEAF96D5D730</title>
    <desc>Created with sketchtool.</desc>
    <g id="Modules" stroke="none" stroke-width="1" fill="none" fill-rule="evenodd">
        <g id="Icons" transform="translate(-440.000000, -202.000000)">
            <g id="Icon-/-phone-/-dark-blue" transform="translate(434.000000, 198.000000)">
                <rect id="Rectangle" x="0" y="0" width="32" height="32"></rect>
                <path d="M7,6.88978217 C7.63119713,10.975004 9.22436053,14.8663716 11.8017865,18.1297886 C14.3220732,21.4301743 17.8210017,24.0952274 21.8420431,26 L25,20.5465795 C23.2327013,19.7586037 20.9367634,18.5613757 19.5633935,17.4139992 L17.7147677,18.6033909 C17.0817059,18.0442267 15.966329,17.1849834 15.0684282,16.028775 C14.1702609,14.8725565 13.6522237,13.6283639 13.2843473,12.8988519 L15.1332394,11.7095113 C14.4027076,10.1486352 13.9289702,7.77909723 13.7023572,6 L7,6.88978217 Z" id="Path" stroke="#11284E" stroke-width="2" stroke-linecap="round" fill-rule="nonzero" transform="translate(16.000000, 16.000000) rotate(1.000000) translate(-16.000000, -16.000000) "></path>
            </g>
        </g>
    </g>
</svg>