<?xml version="1.0" encoding="UTF-8"?>
<svg width="16px" height="24px" viewBox="0 0 16 24" version="1.1" xmlns="http://www.w3.org/2000/svg" xmlns:xlink="http://www.w3.org/1999/xlink">
    <!-- Generator: sketchtool 54.1 (76490) - https://sketchapp.com -->
    <title>0AF232AE-0DAD-49AF-9B96-3430666FD794</title>
    <desc>Created with sketchtool.</desc>
    <g id="Modules" stroke="none" stroke-width="1" fill="none" fill-rule="evenodd">
        <g id="Icons" transform="translate(-216.000000, -202.000000)" fill-rule="nonzero">
            <g id="Icon-/-calculator-/-dark-blue" transform="translate(208.000000, 198.000000)">
                <g id="noun_Calculator_332152" transform="translate(9.000000, 5.000000)">
                    <polygon id="Path" stroke="#11284E" stroke-width="2" points="14 22 0 22 0 0 14 0"></polygon>
                    <path d="M3,5 L11,5 C11.2115968,5.37291689 11.3173952,5.71946927 11.3173952,6.03965715 C11.3173952,6.35984503 11.2115968,6.67995931 11,7 L3,7 C2.77839145,6.70624606 2.66758718,6.38613177 2.66758718,6.03965715 C2.66758718,5.69318252 2.77839145,5.34663014 3,5 Z" id="Path" fill="#11284E"></path>
                    <polygon id="Path" fill="#11284E" points="11 11 9 11 9 9 11 9"></polygon>
                    <polygon id="Path" fill="#11284E" points="3 9 5 9 5 11 3 11"></polygon>
                    <polygon id="Path" fill="#11284E" points="8 11 6 11 6 9 8 9"></polygon>
                    <polygon id="Path" fill="#11284E" points="11 14 9 14 9 12 11 12"></polygon>
                    <polygon id="Path" fill="#11284E" points="3 12 5 12 5 14 3 14"></polygon>
                    <polygon id="Path" fill="#11284E" points="8 14 6 14 6 12 8 12"></polygon>
                    <polygon id="Path" fill="#11284E" points="11 17 9 17 9 15 11 15"></polygon>
                    <polygon id="Path" fill="#11284E" points="3 15 5 15 5 17 3 17"></polygon>
                    <polygon id="Path" fill="#11284E" points="8 17 6 17 6 15 8 15"></polygon>
                </g>
            </g>
        </g>
    </g>
</svg>