<?xml version="1.0" encoding="UTF-8"?>
<svg width="55px" height="49px" viewBox="0 0 55 49" version="1.1" xmlns="http://www.w3.org/2000/svg" xmlns:xlink="http://www.w3.org/1999/xlink">
    <!-- Generator: sketchtool 54.1 (76490) - https://sketchapp.com -->
    <title>C2B42493-658F-4545-A650-4EB403FF6B72</title>
    <desc>Created with sketchtool.</desc>
    <g id="Modules" stroke="none" stroke-width="1" fill="none" fill-rule="evenodd">
        <g id="Icon-poly" transform="translate(-160.000000, -150.000000)">
            <g id="Icon-/-poly-/-heart" transform="translate(162.000000, 152.000000)">
                <g id="Stroke-1">
                    <path d="M8.87335,18.9669088 L29.99425,44.0365854 L51.1117,18.9669088 L50.2952,20.0165249 C51.5004,18.5043856 52.36405,16.6819753 52.7585,14.6784773 C52.91605,13.8768474 53,13.046382 53,12.1963083 C53,5.46607764 47.80315,0.00922739419 41.3919,0.00922739419 C36.10305,0.00922739419 31.64105,3.72325356 30.2415,8.80178064 L29.7585,8.79255324 C28.3578,3.71287274 23.8958,0 18.60695,0 C12.19685,0 7,5.45569682 7,12.1870809 C7,13.0371546 7.0828,13.8664666 7.24035,14.6680965 C7.6348,16.6715945 8.49845,18.4951582 9.7048,20.0072975" fill="#B4EEA1"></path>
                    <path d="M1.87335,18.9669088 L22.99425,44.0365854 L44.1117,18.9669088 L43.2952,20.0165249 C44.5004,18.5043856 45.36405,16.6819753 45.7585,14.6784773 C45.91605,13.8768474 46,13.046382 46,12.1963083 C46,5.46607764 40.80315,0.00922739419 34.3919,0.00922739419 C29.10305,0.00922739419 24.64105,3.72325356 23.2415,8.80178064 L22.7585,8.79255324 C21.3578,3.71287274 16.8958,0 11.60695,0 C5.19685,0 0,5.45569682 0,12.1870809 C0,13.0371546 0.0828,13.8664666 0.24035,14.6680965 C0.6348,16.6715945 1.49845,18.4951582 2.7048,20.0072975" stroke="#11284E" stroke-width="3"></path>
                </g>
            </g>
        </g>
    </g>
</svg>