<?xml version="1.0" encoding="UTF-8"?>
<svg width="161px" height="19px" viewBox="0 0 161 19" version="1.1" xmlns="http://www.w3.org/2000/svg" xmlns:xlink="http://www.w3.org/1999/xlink">
    <!-- Generator: sketchtool 54.1 (76490) - https://sketchapp.com -->
    <title>41B642B9-C085-493E-AE41-77478D3CC629</title>
    <desc>Created with sketchtool.</desc>
    <defs>
        <polygon id="path-1" points="0.0157305128 0.0335036103 4.5055216 0.0335036103 4.5055216 18.0447852 0.0157305128 18.0447852"></polygon>
        <polygon id="path-3" points="0.0565922567 0.0335036103 4.54608128 0.0335036103 4.54608128 18.0447852 0.0565922567 18.0447852"></polygon>
        <polygon id="path-5" points="0.0268116505 0.0231376047 11.873655 0.0231376047 11.873655 12.5867698 0.0268116505 12.5867698"></polygon>
        <polygon id="path-7" points="0.00105470388 0.0656806448 10.7331731 0.0656806448 10.7331731 15.3721134 0.00105470388 15.3721134"></polygon>
    </defs>
    <g id="Modules" stroke="none" stroke-width="1" fill="none" fill-rule="evenodd">
        <g id="Basics" transform="translate(-209.000000, -92.000000)">
            <g id="Logo-Farbe" transform="translate(209.000000, 92.000000)">
                <path d="M9.58200768,11.5825521 L8.23803699,7.88338702 L7.74041519,6.33361818 L7.29222402,7.88338702 L5.94825333,11.5825521 C5.94825333,11.5825521 6.69845361,11.2577665 7.7651305,11.2577665 C8.8366299,11.2577665 9.58200768,11.5825521 9.58200768,11.5825521 L9.58200768,11.5825521 Z M15.6297251,17.6811346 C14.858125,17.856089 14.0618095,17.9810997 13.2404773,17.9810997 C12.7925876,17.9810997 12.2949658,17.9311559 11.8717913,17.856089 L10.7267488,14.6817871 C10.7267488,14.6817871 9.71432504,14.1523836 7.7651305,14.1523836 C5.6070614,14.1523836 4.8035122,14.6817871 4.8035122,14.6817871 L3.65877107,17.856089 C3.11111583,17.9311559 2.51372854,17.9562791 1.96607329,17.9562791 C1.24450661,17.9562791 0.547353841,17.8809095 0,17.6811346 L5.97327005,1.80962498 C6.59537265,1.68491702 7.2672073,1.65979381 7.88961131,1.65979381 C8.53673063,1.65979381 9.08438588,1.68491702 9.70648848,1.80962498 L15.6297251,17.6811346 Z" id="Fill-1" fill="#0066DA"></path>
                <path d="M25.1241136,14.9243127 L25.1241136,9.21992062 C24.5758298,8.94480573 24.0024868,8.86996721 23.4288418,8.86996721 C21.6589962,8.86996721 20.3374994,10.0707164 20.3374994,11.9971267 C20.3374994,13.8986917 21.5841204,15.1497372 23.3790253,15.1497372 C23.9774275,15.1497372 24.5507706,15.0745957 25.1241136,14.9243127 M28.8389175,1.46428646 L28.8389175,17.151289 C27.5922965,17.7766603 25.548007,18.32689 23.5037176,18.32689 C19.1908133,18.32689 16.5979381,16.0753716 16.5979381,12.04712 C16.5979381,8.14430624 19.5395291,5.69251144 23.2045164,5.69251144 C23.9774275,5.69251144 24.5758298,5.76734996 25.1241136,5.91763298 L25.1241136,1.46428646 C25.7475751,1.36399678 26.3707347,1.31400344 26.9691369,1.31400344 C27.5922965,1.31400344 28.215758,1.36399678 28.8389175,1.46428646" id="Fill-3" fill="#0066DA"></path>
                <path d="M51.0386598,10.3841173 L51.0386598,17.8317843 C50.4139329,17.9316295 49.7889032,17.9810997 49.1641763,17.9810997 C48.5391467,17.9810997 47.9144198,17.9316295 47.2896928,17.8317843 L47.2896928,11.2061057 C47.2896928,9.73678264 46.5899018,8.9642644 45.1903197,8.9642644 C44.2405169,8.9642644 43.1908303,9.63693744 43.1908303,9.63693744 C43.1908303,9.63693744 43.2407722,10.1349568 43.2407722,10.3841173 L43.2407722,17.8317843 C42.6157425,17.9316295 41.9910156,17.9810997 41.365986,17.9810997 C40.7412591,17.9810997 40.1165321,17.9316295 39.5166248,17.8317843 L39.5166248,11.2061057 C39.5166248,9.73678264 38.7920142,8.9642644 37.3924321,8.9642644 C36.5673325,8.9642644 35.9174833,9.18868985 35.4677041,9.46258542 L35.4677041,17.8317843 C34.8429772,17.9316295 34.2179475,17.9810997 33.5932206,17.9810997 C32.9684937,17.9810997 32.3685863,17.9316295 31.7435567,17.8317843 L31.7435567,7.56944819 C32.5934759,6.84730502 34.8178549,5.60180412 37.7420249,5.60180412 C39.4167411,5.60180412 40.7161368,6.02531666 41.6159978,6.72272477 C42.5658007,6.1248602 43.9405632,5.60180412 45.5399126,5.60180412 C49.26406,5.60180412 51.0386598,7.61921996 51.0386598,10.3841173" id="Fill-5" fill="#0066DA"></path>
                <g id="Group-9" transform="translate(53.528351, 0.000000)">
                    <mask id="mask-2" fill="white">
                        <use xlink:href="#path-1"></use>
                    </mask>
                    <g id="Clip-8"></g>
                    <path d="M0.389980456,17.8950326 L0.389980456,6.02887397 C0.988357484,5.92903887 1.61210739,5.87912131 2.23555524,5.87912131 C2.83423432,5.87912131 3.45768217,5.92903887 4.10620084,6.02887397 L4.10620084,17.8950326 C3.50752175,17.9951702 2.8840739,18.0447852 2.23555524,18.0447852 C1.63687615,18.0447852 1.0134283,17.9951702 0.389980456,17.8950326 M0.0157305128,2.25692217 C0.0157305128,1.03288327 1.0134283,0.0333220919 2.26062606,0.0333220919 C3.48275299,0.0333220919 4.5055216,1.03288327 4.5055216,2.25692217 C4.5055216,3.48096107 3.48275299,4.50502722 2.26062606,4.50502722 C1.03819706,4.50502722 0.0157305128,3.48096107 0.0157305128,2.25692217" id="Fill-7" fill="#0066DA" mask="url(#mask-2)"></path>
                </g>
                <path d="M68.604811,6.02037292 C68.5796901,7.24331046 68.2298138,8.39128791 67.5551821,9.24002953 C67.1051249,9.11519681 66.6553704,9.06532417 66.130556,9.06532417 C65.3560461,9.06532417 64.7059299,9.21494208 64.3061145,9.41473489 L64.3061145,17.9006398 C63.7062401,18.0006874 63.0564266,18.0502577 62.4317339,18.0502577 C61.8070413,18.0502577 61.2071669,18.0006874 60.5824742,17.9006398 L60.5824742,7.49297591 C61.4069232,6.74428182 63.2564856,5.6709622 65.8557397,5.6709622 C66.9801259,5.6709622 67.9047557,5.79579492 68.604811,6.02037292" id="Fill-10" fill="#0066DA"></path>
                <path d="M75.3618427,15.6603516 C75.9601684,15.6603516 76.5581922,15.5605454 77.1565179,15.3857334 L77.1565179,13.2129829 C76.5581922,13.0381709 75.8853022,12.9383647 75.11249,12.9383647 C73.9408947,12.9383647 73.2178926,13.3378919 73.2178926,14.2119521 C73.2178926,15.0860124 73.9408947,15.6603516 75.3618427,15.6603516 M80.8457904,10.8654205 L80.8457904,17.0839507 C79.0758694,17.8083017 77.0321434,18.257732 74.8634392,18.257732 C71.4730276,18.257732 69.503866,16.9590418 69.503866,14.3619639 C69.503866,11.8643897 71.6475141,10.5908023 74.6635948,10.6156026 C75.6111954,10.6407053 76.4335158,10.7405115 77.1565179,10.9655291 L77.1565179,10.4909961 C77.1565179,9.46692412 76.4585719,8.74257317 74.7137068,8.74257317 C73.3178148,8.74257317 72.1214654,9.29211207 71.4980837,9.76664512 C70.7005173,9.31721484 70.0771356,8.4930577 69.9026491,7.39428234 C70.575841,6.79484034 72.4453823,5.6709622 75.0379257,5.6709622 C78.4778456,5.6709622 80.8457904,7.16926475 80.8457904,10.8654205" id="Fill-12" fill="#0066DA"></path>
                <path d="M83.4737973,17.8313055 L83.4737973,1.46410021 C84.056973,1.36423744 84.6908197,1.31400344 85.3249734,1.31400344 C85.9588201,1.31400344 86.6181558,1.36423744 87.2774914,1.46410021 L87.2774914,17.8313055 C86.6943156,17.9314709 86.03498,17.9810997 85.4008262,17.9810997 C84.7669796,17.9810997 84.1328258,17.9314709 83.4737973,17.8313055" id="Fill-14" fill="#0066DA"></path>
                <path d="M100.879178,9.7426045 C100.879178,6.86897766 99.152871,5.02000335 95.9505084,5.02000335 C95.4503096,5.02000335 94.9249646,5.02000335 94.34963,5.06993474 L94.34963,14.6652338 C94.8998183,14.6903508 95.4503096,14.7154678 96.0507905,14.7154678 C99.1280277,14.7154678 100.879178,12.7663281 100.879178,9.7426045 M104.981959,9.69267312 C104.981959,14.9651247 101.354533,18.1885739 95.8505292,18.1885739 C93.5991804,18.1885739 92.0731349,18.0638967 90.597079,17.8638686 L90.597079,1.92153397 C91.897717,1.69669143 93.474055,1.52147766 95.7756963,1.52147766 C101.704763,1.52147766 104.981959,4.7948582 104.981959,9.69267312" id="Fill-16" fill="#62BB46"></path>
                <g id="Group-20" transform="translate(107.125859, 0.000000)">
                    <mask id="mask-4" fill="white">
                        <use xlink:href="#path-3"></use>
                    </mask>
                    <g id="Clip-19"></g>
                    <path d="M0.430540142,17.8950326 L0.430540142,6.02887397 C1.02921923,5.92903887 1.65266707,5.87912131 2.27611492,5.87912131 C2.87479401,5.87912131 3.49854391,5.92903887 4.14706258,6.02887397 L4.14706258,17.8950326 C3.54838349,17.9951702 2.92463359,18.0447852 2.27611492,18.0447852 C1.67773789,18.0447852 1.05398799,17.9951702 0.430540142,17.8950326 M0.0565922567,2.25692217 C0.0565922567,1.03288327 1.05398799,0.0333220919 2.30118574,0.0333220919 C3.52331267,0.0333220919 4.54608128,1.03288327 4.54608128,2.25692217 C4.54608128,3.48096107 3.52331267,4.50502722 2.30118574,4.50502722 C1.07905881,4.50502722 0.0565922567,3.48096107 0.0565922567,2.25692217" id="Fill-18" fill="#62BB46" mask="url(#mask-4)"></path>
                </g>
                <path d="M122.20232,6.02037292 C122.177199,7.24331046 121.827625,8.39128791 121.152691,9.24002953 C120.702936,9.11519681 120.253182,9.06532417 119.728367,9.06532417 C118.953555,9.06532417 118.303741,9.21494208 117.903926,9.41473489 L117.903926,17.9006398 C117.304051,18.0006874 116.654238,18.0502577 116.029243,18.0502577 C115.40455,18.0502577 114.804978,18.0006874 114.179983,17.9006398 L114.179983,7.49297591 C115.004734,6.74428182 116.853994,5.6709622 119.453248,5.6709622 C120.577937,5.6709622 121.502567,5.79579492 122.20232,6.02037292" id="Fill-21" fill="#62BB46"></path>
                <g id="Group-25" transform="translate(122.893900, 5.670962)">
                    <mask id="mask-6" fill="white">
                        <use xlink:href="#path-5"></use>
                    </mask>
                    <g id="Clip-24"></g>
                    <path d="M8.34216858,5.09832702 C8.34216858,3.95403676 7.7910468,2.90917141 6.26325352,2.83445209 C4.83585721,2.83445209 4.0093262,3.75488567 3.83401064,5.09832702 L8.34216858,5.09832702 Z M11.7483863,7.18835902 L3.83401064,7.18835902 C4.05906972,8.85508195 4.98599771,9.60137131 6.76432846,9.60137131 C8.26694668,9.60137131 9.34401516,9.00421931 10.2706398,8.40706731 C11.047124,9.00421931 11.5230239,9.99937221 11.6231175,10.9198058 C10.5712241,11.7158076 8.94333719,12.58683 6.3636505,12.58683 C2.68172025,12.58683 0.0268116505,10.3229551 0.0268116505,6.36704905 C0.0268116505,2.63530099 2.68172025,0.0231376047 6.23807845,0.0231376047 C9.59424932,0.0231376047 11.873655,2.13787518 11.873655,5.44661547 C11.873655,6.04376747 11.8484799,6.59120702 11.7483863,7.18835902 L11.7483863,7.18835902 Z" id="Fill-23" fill="#62BB46" mask="url(#mask-6)"></path>
                </g>
                <path d="M149.727234,17.7508126 C149.304103,17.9003841 148.134467,18.0502577 147.014557,18.0502577 C146.616441,18.0502577 145.571272,18.0251781 145.123127,17.9756231 L141.688959,14.0580593 C141.41531,14.2079329 141.166375,14.3324247 140.91774,14.4324412 L140.91774,17.8756066 C140.345128,17.9756231 139.72309,18.0251781 139.101052,18.0251781 C138.478712,18.0251781 137.881387,17.9756231 137.209622,17.8756066 L137.209622,1.53273298 C137.806947,1.43301867 138.428985,1.38316151 139.026311,1.38316151 C139.648349,1.38316151 140.270688,1.43301867 140.91774,1.53273298 L140.91774,10.539957 C142.510206,9.49205025 143.928778,7.94526976 144.874192,6.12382165 C145.496531,6.04888483 146.168597,6.04888483 146.691182,6.04888483 C147.362947,6.04888483 148.383402,6.09874199 149.104894,6.22353596 C147.761364,8.59401711 146.243037,10.5151795 144.625557,11.9870232 L149.727234,17.7508126 Z" id="Fill-26" fill="#62BB46"></path>
                <g id="Group-30" transform="translate(150.211340, 2.904639)">
                    <mask id="mask-8" fill="white">
                        <use xlink:href="#path-7"></use>
                    </mask>
                    <g id="Clip-29"></g>
                    <path d="M10.7332033,14.0488238 C9.88642834,14.7228669 8.69135388,15.3721134 6.89828986,15.3721134 C4.18426763,15.3721134 2.14211668,14.2236093 2.14211668,11.3272501 L2.14211668,6.38305795 L0.12529661,6.38305795 C0.0505102201,5.90859694 0.00105470388,5.38424041 0.00105470388,4.83478493 C0.00105470388,4.33552735 0.0505102201,3.83626978 0.12529661,3.33670981 L2.14211668,3.33670981 L2.14211668,0.215367197 C2.78986332,0.115576162 3.41227909,0.0656806448 4.03469485,0.0656806448 C4.63238286,0.0656806448 5.25479862,0.115576162 5.82775887,0.215367197 L5.82775887,3.33670981 L9.96121473,3.33670981 C10.0610304,3.81117082 10.1355153,4.3104284 10.1355153,4.80998837 C10.1355153,5.35944385 10.0610304,5.85870142 9.96121473,6.38305795 L5.82775887,6.38305795 L5.82775887,10.4031247 C5.82775887,11.7515132 6.45017464,12.2011777 7.54573494,12.2011777 C8.2429371,12.2011777 8.79086803,11.8516067 9.18922618,11.5020356 C9.91145765,11.9262987 10.6086598,13.0500063 10.7332033,14.0488238" id="Fill-28" fill="#62BB46" mask="url(#mask-8)"></path>
                </g>
            </g>
        </g>
    </g>
</svg>